<?xml version="1.0" encoding="utf-8" standalone="no"?>
<!DOCTYPE svg PUBLIC "-//W3C//DTD SVG 1.1//EN"
  "http://www.w3.org/Graphics/SVG/1.1/DTD/svg11.dtd">
<svg xmlns:xlink="http://www.w3.org/1999/xlink" width="415.129207pt" height="317.932469pt" viewBox="0 0 415.129207 317.932469" xmlns="http://www.w3.org/2000/svg" version="1.1">
 <metadata>
  <rdf:RDF xmlns:dc="http://purl.org/dc/elements/1.1/" xmlns:cc="http://creativecommons.org/ns#" xmlns:rdf="http://www.w3.org/1999/02/22-rdf-syntax-ns#">
   <cc:Work>
    <dc:type rdf:resource="http://purl.org/dc/dcmitype/StillImage"/>
    <dc:date>2024-11-08T20:30:35.851495</dc:date>
    <dc:format>image/svg+xml</dc:format>
    <dc:creator>
     <cc:Agent>
      <dc:title>Matplotlib v3.9.2, https://matplotlib.org/</dc:title>
     </cc:Agent>
    </dc:creator>
   </cc:Work>
  </rdf:RDF>
 </metadata>
 <defs>
  <style type="text/css">*{stroke-linejoin: round; stroke-linecap: butt}</style>
 </defs>
 <g id="figure_1">
  <g id="patch_1">
   <path d="M 0 317.932469 
L 415.129207 317.932469 
L 415.129207 0 
L 0 0 
z
" style="fill: #ffffff"/>
  </g>
  <g id="axes_1">
   <g id="patch_2">
    <path d="M 46.869531 277.111219 
L 403.989531 277.111219 
L 403.989531 10.999219 
L 46.869531 10.999219 
z
" style="fill: #ffffff"/>
   </g>
   <g id="matplotlib.axis_1">
    <g id="xtick_1">
     <g id="line2d_1">
      <defs>
       <path id="mff38ed6895" d="M 0 0 
L 0 3.5 
" style="stroke: #000000; stroke-width: 0.8"/>
      </defs>
      <g>
       <use xlink:href="#mff38ed6895" x="46.869531" y="277.111219" style="stroke: #000000; stroke-width: 0.8"/>
      </g>
     </g>
     <g id="text_1">
      <!-- $\mathdefault{10^{-2}}$ -->
      <g transform="translate(35.169531 291.709656) scale(0.1 -0.1)">
       <defs>
        <path id="DejaVuSerif-31" d="M 909 0 
L 909 331 
L 1722 331 
L 1722 4213 
L 781 3603 
L 781 4013 
L 1919 4750 
L 2350 4750 
L 2350 331 
L 3163 331 
L 3163 0 
L 909 0 
z
" transform="scale(0.015625)"/>
        <path id="DejaVuSerif-30" d="M 2034 219 
Q 2513 219 2750 744 
Q 2988 1269 2988 2328 
Q 2988 3391 2750 3916 
Q 2513 4441 2034 4441 
Q 1556 4441 1318 3916 
Q 1081 3391 1081 2328 
Q 1081 1269 1318 744 
Q 1556 219 2034 219 
z
M 2034 -91 
Q 1275 -91 848 546 
Q 422 1184 422 2328 
Q 422 3475 848 4112 
Q 1275 4750 2034 4750 
Q 2797 4750 3222 4112 
Q 3647 3475 3647 2328 
Q 3647 1184 3222 546 
Q 2797 -91 2034 -91 
z
" transform="scale(0.015625)"/>
        <path id="DejaVuSerif-2212" d="M 678 2259 
L 4684 2259 
L 4684 1753 
L 678 1753 
L 678 2259 
z
" transform="scale(0.015625)"/>
        <path id="DejaVuSerif-32" d="M 819 3553 
L 469 3553 
L 469 4384 
Q 803 4563 1142 4656 
Q 1481 4750 1806 4750 
Q 2534 4750 2956 4397 
Q 3378 4044 3378 3438 
Q 3378 2753 2422 1800 
Q 2347 1728 2309 1691 
L 1131 513 
L 3078 513 
L 3078 1088 
L 3444 1088 
L 3444 0 
L 434 0 
L 434 341 
L 1850 1753 
Q 2319 2222 2519 2614 
Q 2719 3006 2719 3438 
Q 2719 3909 2473 4175 
Q 2228 4441 1797 4441 
Q 1350 4441 1106 4219 
Q 863 3997 819 3553 
z
" transform="scale(0.015625)"/>
       </defs>
       <use xlink:href="#DejaVuSerif-31" transform="translate(0 0.7125)"/>
       <use xlink:href="#DejaVuSerif-30" transform="translate(63.623047 0.7125)"/>
       <use xlink:href="#DejaVuSerif-2212" transform="translate(128.154453 37.046875) scale(0.7)"/>
       <use xlink:href="#DejaVuSerif-32" transform="translate(186.806797 37.046875) scale(0.7)"/>
      </g>
     </g>
    </g>
    <g id="xtick_2">
     <g id="line2d_2">
      <g>
       <use xlink:href="#mff38ed6895" x="164.289423" y="277.111219" style="stroke: #000000; stroke-width: 0.8"/>
      </g>
     </g>
     <g id="text_2">
      <!-- $\mathdefault{10^{-1}}$ -->
      <g transform="translate(152.589423 291.709656) scale(0.1 -0.1)">
       <use xlink:href="#DejaVuSerif-31" transform="translate(0 0.7125)"/>
       <use xlink:href="#DejaVuSerif-30" transform="translate(63.623047 0.7125)"/>
       <use xlink:href="#DejaVuSerif-2212" transform="translate(128.154453 37.046875) scale(0.7)"/>
       <use xlink:href="#DejaVuSerif-31" transform="translate(186.806797 37.046875) scale(0.7)"/>
      </g>
     </g>
    </g>
    <g id="xtick_3">
     <g id="line2d_3">
      <g>
       <use xlink:href="#mff38ed6895" x="281.709315" y="277.111219" style="stroke: #000000; stroke-width: 0.8"/>
      </g>
     </g>
     <g id="text_3">
      <!-- $\mathdefault{10^{0}}$ -->
      <g transform="translate(272.909315 291.709656) scale(0.1 -0.1)">
       <use xlink:href="#DejaVuSerif-31" transform="translate(0 0.7125)"/>
       <use xlink:href="#DejaVuSerif-30" transform="translate(63.623047 0.7125)"/>
       <use xlink:href="#DejaVuSerif-30" transform="translate(128.154453 37.046875) scale(0.7)"/>
      </g>
     </g>
    </g>
    <g id="xtick_4">
     <g id="line2d_4">
      <g>
       <use xlink:href="#mff38ed6895" x="399.129207" y="277.111219" style="stroke: #000000; stroke-width: 0.8"/>
      </g>
     </g>
     <g id="text_4">
      <!-- $\mathdefault{10^{1}}$ -->
      <g transform="translate(390.329207 291.709656) scale(0.1 -0.1)">
       <use xlink:href="#DejaVuSerif-31" transform="translate(0 0.7125)"/>
       <use xlink:href="#DejaVuSerif-30" transform="translate(63.623047 0.7125)"/>
       <use xlink:href="#DejaVuSerif-31" transform="translate(128.154453 37.046875) scale(0.7)"/>
      </g>
     </g>
    </g>
    <g id="xtick_5">
     <g id="line2d_5">
      <defs>
       <path id="m72843c2afa" d="M 0 0 
L 0 2 
" style="stroke: #000000; stroke-width: 0.6"/>
      </defs>
      <g>
       <use xlink:href="#m72843c2afa" x="82.216441" y="277.111219" style="stroke: #000000; stroke-width: 0.6"/>
      </g>
     </g>
    </g>
    <g id="xtick_6">
     <g id="line2d_6">
      <g>
       <use xlink:href="#m72843c2afa" x="102.893057" y="277.111219" style="stroke: #000000; stroke-width: 0.6"/>
      </g>
     </g>
    </g>
    <g id="xtick_7">
     <g id="line2d_7">
      <g>
       <use xlink:href="#m72843c2afa" x="117.56335" y="277.111219" style="stroke: #000000; stroke-width: 0.6"/>
      </g>
     </g>
    </g>
    <g id="xtick_8">
     <g id="line2d_8">
      <g>
       <use xlink:href="#m72843c2afa" x="128.942514" y="277.111219" style="stroke: #000000; stroke-width: 0.6"/>
      </g>
     </g>
    </g>
    <g id="xtick_9">
     <g id="line2d_9">
      <g>
       <use xlink:href="#m72843c2afa" x="138.239967" y="277.111219" style="stroke: #000000; stroke-width: 0.6"/>
      </g>
     </g>
    </g>
    <g id="xtick_10">
     <g id="line2d_10">
      <g>
       <use xlink:href="#m72843c2afa" x="146.100852" y="277.111219" style="stroke: #000000; stroke-width: 0.6"/>
      </g>
     </g>
    </g>
    <g id="xtick_11">
     <g id="line2d_11">
      <g>
       <use xlink:href="#m72843c2afa" x="152.91026" y="277.111219" style="stroke: #000000; stroke-width: 0.6"/>
      </g>
     </g>
    </g>
    <g id="xtick_12">
     <g id="line2d_12">
      <g>
       <use xlink:href="#m72843c2afa" x="158.916583" y="277.111219" style="stroke: #000000; stroke-width: 0.6"/>
      </g>
     </g>
    </g>
    <g id="xtick_13">
     <g id="line2d_13">
      <g>
       <use xlink:href="#m72843c2afa" x="199.636333" y="277.111219" style="stroke: #000000; stroke-width: 0.6"/>
      </g>
     </g>
    </g>
    <g id="xtick_14">
     <g id="line2d_14">
      <g>
       <use xlink:href="#m72843c2afa" x="220.312949" y="277.111219" style="stroke: #000000; stroke-width: 0.6"/>
      </g>
     </g>
    </g>
    <g id="xtick_15">
     <g id="line2d_15">
      <g>
       <use xlink:href="#m72843c2afa" x="234.983242" y="277.111219" style="stroke: #000000; stroke-width: 0.6"/>
      </g>
     </g>
    </g>
    <g id="xtick_16">
     <g id="line2d_16">
      <g>
       <use xlink:href="#m72843c2afa" x="246.362405" y="277.111219" style="stroke: #000000; stroke-width: 0.6"/>
      </g>
     </g>
    </g>
    <g id="xtick_17">
     <g id="line2d_17">
      <g>
       <use xlink:href="#m72843c2afa" x="255.659859" y="277.111219" style="stroke: #000000; stroke-width: 0.6"/>
      </g>
     </g>
    </g>
    <g id="xtick_18">
     <g id="line2d_18">
      <g>
       <use xlink:href="#m72843c2afa" x="263.520743" y="277.111219" style="stroke: #000000; stroke-width: 0.6"/>
      </g>
     </g>
    </g>
    <g id="xtick_19">
     <g id="line2d_19">
      <g>
       <use xlink:href="#m72843c2afa" x="270.330152" y="277.111219" style="stroke: #000000; stroke-width: 0.6"/>
      </g>
     </g>
    </g>
    <g id="xtick_20">
     <g id="line2d_20">
      <g>
       <use xlink:href="#m72843c2afa" x="276.336475" y="277.111219" style="stroke: #000000; stroke-width: 0.6"/>
      </g>
     </g>
    </g>
    <g id="xtick_21">
     <g id="line2d_21">
      <g>
       <use xlink:href="#m72843c2afa" x="317.056224" y="277.111219" style="stroke: #000000; stroke-width: 0.6"/>
      </g>
     </g>
    </g>
    <g id="xtick_22">
     <g id="line2d_22">
      <g>
       <use xlink:href="#m72843c2afa" x="337.732841" y="277.111219" style="stroke: #000000; stroke-width: 0.6"/>
      </g>
     </g>
    </g>
    <g id="xtick_23">
     <g id="line2d_23">
      <g>
       <use xlink:href="#m72843c2afa" x="352.403134" y="277.111219" style="stroke: #000000; stroke-width: 0.6"/>
      </g>
     </g>
    </g>
    <g id="xtick_24">
     <g id="line2d_24">
      <g>
       <use xlink:href="#m72843c2afa" x="363.782297" y="277.111219" style="stroke: #000000; stroke-width: 0.6"/>
      </g>
     </g>
    </g>
    <g id="xtick_25">
     <g id="line2d_25">
      <g>
       <use xlink:href="#m72843c2afa" x="373.07975" y="277.111219" style="stroke: #000000; stroke-width: 0.6"/>
      </g>
     </g>
    </g>
    <g id="xtick_26">
     <g id="line2d_26">
      <g>
       <use xlink:href="#m72843c2afa" x="380.940635" y="277.111219" style="stroke: #000000; stroke-width: 0.6"/>
      </g>
     </g>
    </g>
    <g id="xtick_27">
     <g id="line2d_27">
      <g>
       <use xlink:href="#m72843c2afa" x="387.750043" y="277.111219" style="stroke: #000000; stroke-width: 0.6"/>
      </g>
     </g>
    </g>
    <g id="xtick_28">
     <g id="line2d_28">
      <g>
       <use xlink:href="#m72843c2afa" x="393.756367" y="277.111219" style="stroke: #000000; stroke-width: 0.6"/>
      </g>
     </g>
    </g>
    <g id="text_5">
     <!-- hourly_cost(1 GB RAM) รท hourly_cost(1 vCPU core) -->
     <g transform="translate(54.278438 307.667312) scale(0.13 -0.13)">
      <defs>
       <path id="DejaVuSerif-68" d="M 263 0 
L 263 331 
L 781 331 
L 781 4531 
L 231 4531 
L 231 4863 
L 1356 4863 
L 1356 2731 
Q 1516 3069 1770 3241 
Q 2025 3413 2363 3413 
Q 2913 3413 3172 3097 
Q 3431 2781 3431 2113 
L 3431 331 
L 3944 331 
L 3944 0 
L 2356 0 
L 2356 331 
L 2853 331 
L 2853 1931 
Q 2853 2541 2704 2764 
Q 2556 2988 2175 2988 
Q 1775 2988 1565 2697 
Q 1356 2406 1356 1850 
L 1356 331 
L 1856 331 
L 1856 0 
L 263 0 
z
" transform="scale(0.015625)"/>
       <path id="DejaVuSerif-6f" d="M 1925 219 
Q 2388 219 2623 584 
Q 2859 950 2859 1663 
Q 2859 2375 2623 2739 
Q 2388 3103 1925 3103 
Q 1463 3103 1227 2739 
Q 991 2375 991 1663 
Q 991 950 1228 584 
Q 1466 219 1925 219 
z
M 1925 -91 
Q 1200 -91 759 389 
Q 319 869 319 1663 
Q 319 2456 758 2934 
Q 1197 3413 1925 3413 
Q 2653 3413 3092 2934 
Q 3531 2456 3531 1663 
Q 3531 869 3092 389 
Q 2653 -91 1925 -91 
z
" transform="scale(0.015625)"/>
       <path id="DejaVuSerif-75" d="M 2266 3322 
L 3341 3322 
L 3341 331 
L 3884 331 
L 3884 0 
L 2766 0 
L 2766 588 
Q 2606 256 2353 82 
Q 2100 -91 1766 -91 
Q 1213 -91 952 223 
Q 691 538 691 1209 
L 691 2988 
L 172 2988 
L 172 3322 
L 1269 3322 
L 1269 1388 
Q 1269 781 1417 556 
Q 1566 331 1947 331 
Q 2347 331 2556 625 
Q 2766 919 2766 1478 
L 2766 2988 
L 2266 2988 
L 2266 3322 
z
" transform="scale(0.015625)"/>
       <path id="DejaVuSerif-72" d="M 3059 3328 
L 3059 2497 
L 2728 2497 
Q 2713 2744 2591 2866 
Q 2469 2988 2234 2988 
Q 1809 2988 1582 2694 
Q 1356 2400 1356 1850 
L 1356 331 
L 2022 331 
L 2022 0 
L 263 0 
L 263 331 
L 781 331 
L 781 2994 
L 231 2994 
L 231 3322 
L 1356 3322 
L 1356 2731 
Q 1525 3078 1790 3245 
Q 2056 3413 2438 3413 
Q 2578 3413 2733 3391 
Q 2888 3369 3059 3328 
z
" transform="scale(0.015625)"/>
       <path id="DejaVuSerif-6c" d="M 1313 331 
L 1856 331 
L 1856 0 
L 184 0 
L 184 331 
L 738 331 
L 738 4531 
L 184 4531 
L 184 4863 
L 1313 4863 
L 1313 331 
z
" transform="scale(0.015625)"/>
       <path id="DejaVuSerif-79" d="M 1381 -609 
L 1600 -56 
L 359 2988 
L -19 2988 
L -19 3322 
L 1509 3322 
L 1509 2988 
L 978 2988 
L 1913 703 
L 2847 2988 
L 2350 2988 
L 2350 3322 
L 3597 3322 
L 3597 2988 
L 3225 2988 
L 1703 -750 
Q 1547 -1138 1356 -1280 
Q 1166 -1422 819 -1422 
Q 672 -1422 517 -1397 
Q 363 -1372 206 -1325 
L 206 -691 
L 500 -691 
Q 519 -903 608 -995 
Q 697 -1088 884 -1088 
Q 1056 -1088 1161 -992 
Q 1266 -897 1381 -609 
z
" transform="scale(0.015625)"/>
       <path id="DejaVuSerif-5f" d="M 3200 -1259 
L 3200 -1509 
L 0 -1509 
L 0 -1259 
L 3200 -1259 
z
" transform="scale(0.015625)"/>
       <path id="DejaVuSerif-63" d="M 3291 997 
Q 3169 466 2822 187 
Q 2475 -91 1925 -91 
Q 1200 -91 759 389 
Q 319 869 319 1663 
Q 319 2459 759 2936 
Q 1200 3413 1925 3413 
Q 2241 3413 2553 3339 
Q 2866 3266 3181 3116 
L 3181 2266 
L 2847 2266 
Q 2781 2703 2561 2903 
Q 2341 3103 1931 3103 
Q 1466 3103 1228 2742 
Q 991 2381 991 1663 
Q 991 944 1227 581 
Q 1463 219 1931 219 
Q 2303 219 2525 412 
Q 2747 606 2828 997 
L 3291 997 
z
" transform="scale(0.015625)"/>
       <path id="DejaVuSerif-73" d="M 359 184 
L 359 959 
L 691 959 
Q 703 588 923 403 
Q 1144 219 1575 219 
Q 1963 219 2166 364 
Q 2369 509 2369 788 
Q 2369 1006 2220 1140 
Q 2072 1275 1594 1428 
L 1178 1569 
Q 750 1706 558 1912 
Q 366 2119 366 2438 
Q 366 2894 700 3153 
Q 1034 3413 1625 3413 
Q 1888 3413 2178 3344 
Q 2469 3275 2778 3144 
L 2778 2419 
L 2447 2419 
Q 2434 2741 2221 2922 
Q 2009 3103 1644 3103 
Q 1281 3103 1095 2975 
Q 909 2847 909 2591 
Q 909 2381 1050 2254 
Q 1191 2128 1613 1997 
L 2069 1856 
Q 2541 1709 2748 1489 
Q 2956 1269 2956 922 
Q 2956 450 2595 179 
Q 2234 -91 1600 -91 
Q 1278 -91 972 -22 
Q 666 47 359 184 
z
" transform="scale(0.015625)"/>
       <path id="DejaVuSerif-74" d="M 691 2988 
L 184 2988 
L 184 3322 
L 691 3322 
L 691 4353 
L 1269 4353 
L 1269 3322 
L 2350 3322 
L 2350 2988 
L 1269 2988 
L 1269 878 
Q 1269 456 1350 337 
Q 1431 219 1650 219 
Q 1875 219 1978 351 
Q 2081 484 2088 781 
L 2522 781 
Q 2497 328 2275 118 
Q 2053 -91 1600 -91 
Q 1103 -91 897 129 
Q 691 350 691 878 
L 691 2988 
z
" transform="scale(0.015625)"/>
       <path id="DejaVuSerif-28" d="M 2041 -997 
Q 1281 -656 893 83 
Q 506 822 506 1931 
Q 506 3044 893 3783 
Q 1281 4522 2041 4863 
L 2041 4556 
Q 1559 4225 1350 3623 
Q 1141 3022 1141 1931 
Q 1141 844 1350 242 
Q 1559 -359 2041 -691 
L 2041 -997 
z
" transform="scale(0.015625)"/>
       <path id="DejaVuSerif-20" transform="scale(0.015625)"/>
       <path id="DejaVuSerif-47" d="M 4097 3272 
Q 3988 3856 3641 4136 
Q 3294 4416 2675 4416 
Q 1869 4416 1472 3897 
Q 1075 3378 1075 2328 
Q 1075 1300 1484 772 
Q 1894 244 2688 244 
Q 3041 244 3362 331 
Q 3684 419 3975 594 
L 3975 1797 
L 3097 1797 
L 3097 2131 
L 4609 2131 
L 4609 391 
Q 4194 150 3714 29 
Q 3234 -91 2688 -91 
Q 1631 -91 995 570 
Q 359 1231 359 2328 
Q 359 3434 996 4092 
Q 1634 4750 2713 4750 
Q 3113 4750 3539 4658 
Q 3966 4566 4447 4378 
L 4447 3272 
L 4097 3272 
z
" transform="scale(0.015625)"/>
       <path id="DejaVuSerif-42" d="M 1581 331 
L 2516 331 
Q 3078 331 3337 575 
Q 3597 819 3597 1350 
Q 3597 1878 3339 2120 
Q 3081 2363 2516 2363 
L 1581 2363 
L 1581 331 
z
M 1581 2694 
L 2375 2694 
Q 2888 2694 3123 2891 
Q 3359 3088 3359 3513 
Q 3359 3941 3123 4136 
Q 2888 4331 2375 4331 
L 1581 4331 
L 1581 2694 
z
M 353 0 
L 353 331 
L 947 331 
L 947 4331 
L 353 4331 
L 353 4666 
L 2656 4666 
Q 3363 4666 3720 4377 
Q 4078 4088 4078 3513 
Q 4078 3097 3829 2850 
Q 3581 2603 3103 2547 
Q 3697 2472 4005 2167 
Q 4313 1863 4313 1350 
Q 4313 656 3875 328 
Q 3438 0 2509 0 
L 353 0 
z
" transform="scale(0.015625)"/>
       <path id="DejaVuSerif-52" d="M 3066 2316 
Q 3284 2256 3442 2114 
Q 3600 1972 3725 1716 
L 4403 331 
L 4972 331 
L 4972 0 
L 3872 0 
L 3144 1484 
Q 2934 1916 2759 2042 
Q 2584 2169 2278 2169 
L 1581 2169 
L 1581 331 
L 2241 331 
L 2241 0 
L 353 0 
L 353 331 
L 947 331 
L 947 4331 
L 353 4331 
L 353 4666 
L 2719 4666 
Q 3400 4666 3770 4341 
Q 4141 4016 4141 3419 
Q 4141 2938 3870 2661 
Q 3600 2384 3066 2316 
z
M 1581 2503 
L 2503 2503 
Q 2975 2503 3200 2726 
Q 3425 2950 3425 3419 
Q 3425 3888 3200 4109 
Q 2975 4331 2503 4331 
L 1581 4331 
L 1581 2503 
z
" transform="scale(0.015625)"/>
       <path id="DejaVuSerif-41" d="M 1281 1691 
L 2994 1691 
L 2138 3909 
L 1281 1691 
z
M -38 0 
L -38 331 
L 372 331 
L 2034 4666 
L 2559 4666 
L 4225 331 
L 4684 331 
L 4684 0 
L 2988 0 
L 2988 331 
L 3506 331 
L 3116 1356 
L 1153 1356 
L 763 331 
L 1275 331 
L 1275 0 
L -38 0 
z
" transform="scale(0.015625)"/>
       <path id="DejaVuSerif-4d" d="M 353 0 
L 353 331 
L 947 331 
L 947 4331 
L 319 4331 
L 319 4666 
L 1678 4666 
L 3316 1344 
L 4953 4666 
L 6228 4666 
L 6228 4331 
L 5606 4331 
L 5606 331 
L 6203 331 
L 6203 0 
L 4378 0 
L 4378 331 
L 4972 331 
L 4972 3938 
L 3372 684 
L 2931 684 
L 1331 3938 
L 1331 331 
L 1925 331 
L 1925 0 
L 353 0 
z
" transform="scale(0.015625)"/>
       <path id="DejaVuSerif-29" d="M 453 -997 
L 453 -691 
Q 934 -359 1145 242 
Q 1356 844 1356 1931 
Q 1356 3022 1145 3623 
Q 934 4225 453 4556 
L 453 4863 
Q 1216 4522 1603 3783 
Q 1991 3044 1991 1931 
Q 1991 822 1603 83 
Q 1216 -656 453 -997 
z
" transform="scale(0.015625)"/>
       <path id="DejaVuSerif-f7" d="M 2266 3163 
Q 2266 3338 2386 3458 
Q 2506 3578 2681 3578 
Q 2853 3578 2975 3456 
Q 3097 3334 3097 3163 
Q 3097 2988 2975 2867 
Q 2853 2747 2681 2747 
Q 2503 2747 2384 2865 
Q 2266 2984 2266 3163 
z
M 2266 850 
Q 2266 1025 2386 1147 
Q 2506 1269 2681 1269 
Q 2853 1269 2975 1147 
Q 3097 1025 3097 850 
Q 3097 678 2975 556 
Q 2853 434 2681 434 
Q 2503 434 2384 554 
Q 2266 675 2266 850 
z
M 678 2259 
L 4684 2259 
L 4684 1753 
L 678 1753 
L 678 2259 
z
" transform="scale(0.015625)"/>
       <path id="DejaVuSerif-76" d="M 1581 0 
L 359 2988 
L -19 2988 
L -19 3322 
L 1509 3322 
L 1509 2988 
L 978 2988 
L 1913 703 
L 2847 2988 
L 2350 2988 
L 2350 3322 
L 3597 3322 
L 3597 2988 
L 3225 2988 
L 2003 0 
L 1581 0 
z
" transform="scale(0.015625)"/>
       <path id="DejaVuSerif-43" d="M 4513 1234 
Q 4306 581 3820 245 
Q 3334 -91 2591 -91 
Q 2134 -91 1743 65 
Q 1353 222 1050 525 
Q 700 875 529 1320 
Q 359 1766 359 2328 
Q 359 3416 987 4083 
Q 1616 4750 2644 4750 
Q 3025 4750 3456 4650 
Q 3888 4550 4384 4347 
L 4384 3272 
L 4031 3272 
Q 3916 3859 3567 4137 
Q 3219 4416 2591 4416 
Q 1844 4416 1459 3886 
Q 1075 3356 1075 2328 
Q 1075 1303 1459 773 
Q 1844 244 2591 244 
Q 3113 244 3450 492 
Q 3788 741 3938 1234 
L 4513 1234 
z
" transform="scale(0.015625)"/>
       <path id="DejaVuSerif-50" d="M 1581 2375 
L 2406 2375 
Q 2872 2375 3115 2626 
Q 3359 2878 3359 3353 
Q 3359 3831 3115 4081 
Q 2872 4331 2406 4331 
L 1581 4331 
L 1581 2375 
z
M 353 0 
L 353 331 
L 947 331 
L 947 4331 
L 353 4331 
L 353 4666 
L 2559 4666 
Q 3259 4666 3668 4311 
Q 4078 3956 4078 3353 
Q 4078 2753 3668 2397 
Q 3259 2041 2559 2041 
L 1581 2041 
L 1581 331 
L 2303 331 
L 2303 0 
L 353 0 
z
" transform="scale(0.015625)"/>
       <path id="DejaVuSerif-55" d="M 897 4331 
L 300 4331 
L 300 4666 
L 2125 4666 
L 2125 4331 
L 1528 4331 
L 1528 1919 
Q 1528 1025 1820 672 
Q 2113 319 2828 319 
Q 3544 319 3836 672 
Q 4128 1025 4128 1919 
L 4128 4331 
L 3531 4331 
L 3531 4666 
L 5106 4666 
L 5106 4331 
L 4513 4331 
L 4513 1856 
Q 4513 791 4103 350 
Q 3694 -91 2713 -91 
Q 1731 -91 1314 353 
Q 897 797 897 1856 
L 897 4331 
z
" transform="scale(0.015625)"/>
       <path id="DejaVuSerif-65" d="M 3469 1600 
L 991 1600 
L 991 1575 
Q 991 903 1244 561 
Q 1497 219 1991 219 
Q 2369 219 2611 417 
Q 2853 616 2950 1006 
L 3413 1006 
Q 3275 459 2904 184 
Q 2534 -91 1931 -91 
Q 1203 -91 761 389 
Q 319 869 319 1663 
Q 319 2450 753 2931 
Q 1188 3413 1894 3413 
Q 2647 3413 3050 2948 
Q 3453 2484 3469 1600 
z
M 2791 1931 
Q 2772 2513 2545 2808 
Q 2319 3103 1894 3103 
Q 1497 3103 1269 2806 
Q 1041 2509 991 1931 
L 2791 1931 
z
" transform="scale(0.015625)"/>
      </defs>
      <use xlink:href="#DejaVuSerif-68"/>
      <use xlink:href="#DejaVuSerif-6f" x="64.404297"/>
      <use xlink:href="#DejaVuSerif-75" x="124.609375"/>
      <use xlink:href="#DejaVuSerif-72" x="189.013672"/>
      <use xlink:href="#DejaVuSerif-6c" x="236.816406"/>
      <use xlink:href="#DejaVuSerif-79" x="268.798828"/>
      <use xlink:href="#DejaVuSerif-5f" x="325.292969"/>
      <use xlink:href="#DejaVuSerif-63" x="375.292969"/>
      <use xlink:href="#DejaVuSerif-6f" x="431.298828"/>
      <use xlink:href="#DejaVuSerif-73" x="491.503906"/>
      <use xlink:href="#DejaVuSerif-74" x="542.822266"/>
      <use xlink:href="#DejaVuSerif-28" x="583.007812"/>
      <use xlink:href="#DejaVuSerif-31" x="622.021484"/>
      <use xlink:href="#DejaVuSerif-20" x="685.644531"/>
      <use xlink:href="#DejaVuSerif-47" x="717.431641"/>
      <use xlink:href="#DejaVuSerif-42" x="797.314453"/>
      <use xlink:href="#DejaVuSerif-20" x="870.800781"/>
      <use xlink:href="#DejaVuSerif-52" x="902.587891"/>
      <use xlink:href="#DejaVuSerif-41" x="977.880859"/>
      <use xlink:href="#DejaVuSerif-4d" x="1050.097656"/>
      <use xlink:href="#DejaVuSerif-29" x="1152.490234"/>
      <use xlink:href="#DejaVuSerif-20" x="1191.503906"/>
      <use xlink:href="#DejaVuSerif-f7" x="1223.291016"/>
      <use xlink:href="#DejaVuSerif-20" x="1307.080078"/>
      <use xlink:href="#DejaVuSerif-68" x="1338.867188"/>
      <use xlink:href="#DejaVuSerif-6f" x="1403.271484"/>
      <use xlink:href="#DejaVuSerif-75" x="1463.476562"/>
      <use xlink:href="#DejaVuSerif-72" x="1527.880859"/>
      <use xlink:href="#DejaVuSerif-6c" x="1575.683594"/>
      <use xlink:href="#DejaVuSerif-79" x="1607.666016"/>
      <use xlink:href="#DejaVuSerif-5f" x="1664.160156"/>
      <use xlink:href="#DejaVuSerif-63" x="1714.160156"/>
      <use xlink:href="#DejaVuSerif-6f" x="1770.166016"/>
      <use xlink:href="#DejaVuSerif-73" x="1830.371094"/>
      <use xlink:href="#DejaVuSerif-74" x="1881.689453"/>
      <use xlink:href="#DejaVuSerif-28" x="1921.875"/>
      <use xlink:href="#DejaVuSerif-31" x="1960.888672"/>
      <use xlink:href="#DejaVuSerif-20" x="2024.511719"/>
      <use xlink:href="#DejaVuSerif-76" x="2056.298828"/>
      <use xlink:href="#DejaVuSerif-43" x="2112.792969"/>
      <use xlink:href="#DejaVuSerif-50" x="2189.306641"/>
      <use xlink:href="#DejaVuSerif-55" x="2254.841797"/>
      <use xlink:href="#DejaVuSerif-20" x="2339.119141"/>
      <use xlink:href="#DejaVuSerif-63" x="2370.90625"/>
      <use xlink:href="#DejaVuSerif-6f" x="2426.912109"/>
      <use xlink:href="#DejaVuSerif-72" x="2487.117188"/>
      <use xlink:href="#DejaVuSerif-65" x="2534.919922"/>
      <use xlink:href="#DejaVuSerif-29" x="2594.099609"/>
     </g>
    </g>
   </g>
   <g id="matplotlib.axis_2">
    <g id="ytick_1">
     <g id="line2d_29">
      <defs>
       <path id="m876bee75d0" d="M 0 0 
L -3.5 0 
" style="stroke: #000000; stroke-width: 0.8"/>
      </defs>
      <g>
       <use xlink:href="#m876bee75d0" x="46.869531" y="277.100575" style="stroke: #000000; stroke-width: 0.8"/>
      </g>
     </g>
     <g id="text_6">
      <!-- 1.0 -->
      <g transform="translate(23.966406 280.899793) scale(0.1 -0.1)">
       <defs>
        <path id="DejaVuSerif-2e" d="M 603 325 
Q 603 500 722 622 
Q 841 744 1019 744 
Q 1191 744 1312 622 
Q 1434 500 1434 325 
Q 1434 153 1312 31 
Q 1191 -91 1019 -91 
Q 841 -91 722 29 
Q 603 150 603 325 
z
" transform="scale(0.015625)"/>
       </defs>
       <use xlink:href="#DejaVuSerif-31"/>
       <use xlink:href="#DejaVuSerif-2e" x="63.623047"/>
       <use xlink:href="#DejaVuSerif-30" x="95.410156"/>
      </g>
     </g>
    </g>
    <g id="ytick_2">
     <g id="line2d_30">
      <g>
       <use xlink:href="#m876bee75d0" x="46.869531" y="223.880304" style="stroke: #000000; stroke-width: 0.8"/>
      </g>
     </g>
     <g id="text_7">
      <!-- 1.5 -->
      <g transform="translate(23.966406 227.679522) scale(0.1 -0.1)">
       <defs>
        <path id="DejaVuSerif-35" d="M 3219 4666 
L 3219 4153 
L 1081 4153 
L 1081 2816 
Q 1244 2928 1461 2984 
Q 1678 3041 1947 3041 
Q 2703 3041 3140 2622 
Q 3578 2203 3578 1478 
Q 3578 738 3136 323 
Q 2694 -91 1894 -91 
Q 1572 -91 1234 -12 
Q 897 66 544 225 
L 544 1131 
L 897 1131 
Q 925 688 1179 453 
Q 1434 219 1894 219 
Q 2388 219 2653 544 
Q 2919 869 2919 1478 
Q 2919 2084 2655 2407 
Q 2391 2731 1894 2731 
Q 1613 2731 1398 2631 
Q 1184 2531 1019 2322 
L 750 2322 
L 750 4666 
L 3219 4666 
z
" transform="scale(0.015625)"/>
       </defs>
       <use xlink:href="#DejaVuSerif-31"/>
       <use xlink:href="#DejaVuSerif-2e" x="63.623047"/>
       <use xlink:href="#DejaVuSerif-35" x="95.410156"/>
      </g>
     </g>
    </g>
    <g id="ytick_3">
     <g id="line2d_31">
      <g>
       <use xlink:href="#m876bee75d0" x="46.869531" y="170.660032" style="stroke: #000000; stroke-width: 0.8"/>
      </g>
     </g>
     <g id="text_8">
      <!-- 2.0 -->
      <g transform="translate(23.966406 174.459251) scale(0.1 -0.1)">
       <use xlink:href="#DejaVuSerif-32"/>
       <use xlink:href="#DejaVuSerif-2e" x="63.623047"/>
       <use xlink:href="#DejaVuSerif-30" x="95.410156"/>
      </g>
     </g>
    </g>
    <g id="ytick_4">
     <g id="line2d_32">
      <g>
       <use xlink:href="#m876bee75d0" x="46.869531" y="117.439761" style="stroke: #000000; stroke-width: 0.8"/>
      </g>
     </g>
     <g id="text_9">
      <!-- 2.5 -->
      <g transform="translate(23.966406 121.23898) scale(0.1 -0.1)">
       <use xlink:href="#DejaVuSerif-32"/>
       <use xlink:href="#DejaVuSerif-2e" x="63.623047"/>
       <use xlink:href="#DejaVuSerif-35" x="95.410156"/>
      </g>
     </g>
    </g>
    <g id="ytick_5">
     <g id="line2d_33">
      <g>
       <use xlink:href="#m876bee75d0" x="46.869531" y="64.21949" style="stroke: #000000; stroke-width: 0.8"/>
      </g>
     </g>
     <g id="text_10">
      <!-- 3.0 -->
      <g transform="translate(23.966406 68.018709) scale(0.1 -0.1)">
       <defs>
        <path id="DejaVuSerif-33" d="M 622 4469 
Q 988 4606 1323 4678 
Q 1659 4750 1953 4750 
Q 2638 4750 3022 4454 
Q 3406 4159 3406 3634 
Q 3406 3213 3140 2930 
Q 2875 2647 2388 2547 
Q 2963 2466 3280 2130 
Q 3597 1794 3597 1259 
Q 3597 606 3158 257 
Q 2719 -91 1894 -91 
Q 1528 -91 1179 -12 
Q 831 66 488 225 
L 488 1131 
L 838 1131 
Q 869 681 1141 450 
Q 1413 219 1906 219 
Q 2384 219 2661 495 
Q 2938 772 2938 1253 
Q 2938 1803 2653 2086 
Q 2369 2369 1819 2369 
L 1522 2369 
L 1522 2688 
L 1678 2688 
Q 2225 2688 2498 2914 
Q 2772 3141 2772 3597 
Q 2772 4006 2547 4223 
Q 2322 4441 1900 4441 
Q 1478 4441 1245 4241 
Q 1013 4041 972 3647 
L 622 3647 
L 622 4469 
z
" transform="scale(0.015625)"/>
       </defs>
       <use xlink:href="#DejaVuSerif-33"/>
       <use xlink:href="#DejaVuSerif-2e" x="63.623047"/>
       <use xlink:href="#DejaVuSerif-30" x="95.410156"/>
      </g>
     </g>
    </g>
    <g id="ytick_6">
     <g id="line2d_34">
      <g>
       <use xlink:href="#m876bee75d0" x="46.869531" y="10.999219" style="stroke: #000000; stroke-width: 0.8"/>
      </g>
     </g>
     <g id="text_11">
      <!-- 3.5 -->
      <g transform="translate(23.966406 14.798437) scale(0.1 -0.1)">
       <use xlink:href="#DejaVuSerif-33"/>
       <use xlink:href="#DejaVuSerif-2e" x="63.623047"/>
       <use xlink:href="#DejaVuSerif-35" x="95.410156"/>
      </g>
     </g>
    </g>
    <g id="text_12">
     <!-- Monetary cost of execution [normalized] -->
     <g transform="translate(17.077969 277.893266) rotate(-90) scale(0.13 -0.13)">
      <defs>
       <path id="DejaVuSerif-6e" d="M 263 0 
L 263 331 
L 781 331 
L 781 2988 
L 231 2988 
L 231 3322 
L 1356 3322 
L 1356 2731 
Q 1516 3069 1770 3241 
Q 2025 3413 2363 3413 
Q 2913 3413 3172 3097 
Q 3431 2781 3431 2113 
L 3431 331 
L 3944 331 
L 3944 0 
L 2356 0 
L 2356 331 
L 2853 331 
L 2853 1931 
Q 2853 2541 2703 2767 
Q 2553 2994 2175 2994 
Q 1775 2994 1565 2701 
Q 1356 2409 1356 1850 
L 1356 331 
L 1856 331 
L 1856 0 
L 263 0 
z
" transform="scale(0.015625)"/>
       <path id="DejaVuSerif-61" d="M 2547 1044 
L 2547 1747 
L 1806 1747 
Q 1378 1747 1168 1562 
Q 959 1378 959 997 
Q 959 650 1171 447 
Q 1384 244 1747 244 
Q 2106 244 2326 466 
Q 2547 688 2547 1044 
z
M 3122 2075 
L 3122 331 
L 3634 331 
L 3634 0 
L 2547 0 
L 2547 359 
Q 2356 128 2106 18 
Q 1856 -91 1522 -91 
Q 969 -91 644 203 
Q 319 497 319 997 
Q 319 1513 691 1797 
Q 1063 2081 1741 2081 
L 2547 2081 
L 2547 2309 
Q 2547 2688 2317 2895 
Q 2088 3103 1672 3103 
Q 1328 3103 1125 2947 
Q 922 2791 872 2484 
L 575 2484 
L 575 3156 
Q 875 3284 1158 3348 
Q 1441 3413 1709 3413 
Q 2400 3413 2761 3070 
Q 3122 2728 3122 2075 
z
" transform="scale(0.015625)"/>
       <path id="DejaVuSerif-66" d="M 2753 4078 
L 2450 4078 
Q 2447 4313 2317 4434 
Q 2188 4556 1941 4556 
Q 1619 4556 1487 4379 
Q 1356 4203 1356 3750 
L 1356 3322 
L 2284 3322 
L 2284 2988 
L 1356 2988 
L 1356 331 
L 2094 331 
L 2094 0 
L 231 0 
L 231 331 
L 781 331 
L 781 2988 
L 231 2988 
L 231 3322 
L 781 3322 
L 781 3738 
Q 781 4294 1070 4578 
Q 1359 4863 1919 4863 
Q 2128 4863 2337 4825 
Q 2547 4788 2753 4709 
L 2753 4078 
z
" transform="scale(0.015625)"/>
       <path id="DejaVuSerif-78" d="M 1863 2028 
L 2559 2988 
L 2113 2988 
L 2113 3322 
L 3391 3322 
L 3391 2988 
L 2950 2988 
L 2059 1759 
L 3097 331 
L 3531 331 
L 3531 0 
L 1997 0 
L 1997 331 
L 2419 331 
L 1697 1325 
L 972 331 
L 1403 331 
L 1403 0 
L 141 0 
L 141 331 
L 581 331 
L 1497 1594 
L 488 2988 
L 78 2988 
L 78 3322 
L 1563 3322 
L 1563 2988 
L 1166 2988 
L 1863 2028 
z
" transform="scale(0.015625)"/>
       <path id="DejaVuSerif-69" d="M 622 4353 
Q 622 4497 726 4603 
Q 831 4709 978 4709 
Q 1122 4709 1226 4603 
Q 1331 4497 1331 4353 
Q 1331 4206 1228 4103 
Q 1125 4000 978 4000 
Q 831 4000 726 4103 
Q 622 4206 622 4353 
z
M 1356 331 
L 1900 331 
L 1900 0 
L 231 0 
L 231 331 
L 781 331 
L 781 2988 
L 231 2988 
L 231 3322 
L 1356 3322 
L 1356 331 
z
" transform="scale(0.015625)"/>
       <path id="DejaVuSerif-5b" d="M 550 4863 
L 2003 4863 
L 2003 4531 
L 1147 4531 
L 1147 -513 
L 2003 -513 
L 2003 -844 
L 550 -844 
L 550 4863 
z
" transform="scale(0.015625)"/>
       <path id="DejaVuSerif-6d" d="M 3316 2675 
Q 3481 3041 3739 3227 
Q 3997 3413 4341 3413 
Q 4863 3413 5119 3089 
Q 5375 2766 5375 2113 
L 5375 331 
L 5894 331 
L 5894 0 
L 4300 0 
L 4300 331 
L 4800 331 
L 4800 2047 
Q 4800 2556 4650 2772 
Q 4500 2988 4153 2988 
Q 3769 2988 3567 2697 
Q 3366 2406 3366 1850 
L 3366 331 
L 3866 331 
L 3866 0 
L 2291 0 
L 2291 331 
L 2791 331 
L 2791 2069 
Q 2791 2566 2641 2777 
Q 2491 2988 2144 2988 
Q 1759 2988 1557 2697 
Q 1356 2406 1356 1850 
L 1356 331 
L 1856 331 
L 1856 0 
L 263 0 
L 263 331 
L 781 331 
L 781 2994 
L 231 2994 
L 231 3322 
L 1356 3322 
L 1356 2731 
Q 1516 3063 1762 3238 
Q 2009 3413 2322 3413 
Q 2709 3413 2968 3220 
Q 3228 3028 3316 2675 
z
" transform="scale(0.015625)"/>
       <path id="DejaVuSerif-7a" d="M 256 0 
L 256 269 
L 2338 2988 
L 691 2988 
L 691 2413 
L 359 2413 
L 359 3322 
L 3078 3322 
L 3078 3053 
L 997 331 
L 2803 331 
L 2803 934 
L 3138 934 
L 3138 0 
L 256 0 
z
" transform="scale(0.015625)"/>
       <path id="DejaVuSerif-64" d="M 3359 331 
L 3909 331 
L 3909 0 
L 2784 0 
L 2784 519 
Q 2616 206 2355 57 
Q 2094 -91 1709 -91 
Q 1097 -91 708 395 
Q 319 881 319 1663 
Q 319 2444 706 2928 
Q 1094 3413 1709 3413 
Q 2094 3413 2355 3264 
Q 2616 3116 2784 2803 
L 2784 4531 
L 2241 4531 
L 2241 4863 
L 3359 4863 
L 3359 331 
z
M 2784 1497 
L 2784 1825 
Q 2784 2422 2554 2737 
Q 2325 3053 1888 3053 
Q 1444 3053 1217 2703 
Q 991 2353 991 1663 
Q 991 975 1217 622 
Q 1444 269 1888 269 
Q 2325 269 2554 583 
Q 2784 897 2784 1497 
z
" transform="scale(0.015625)"/>
       <path id="DejaVuSerif-5d" d="M 1947 4863 
L 1947 -844 
L 494 -844 
L 494 -513 
L 1350 -513 
L 1350 4531 
L 494 4531 
L 494 4863 
L 1947 4863 
z
" transform="scale(0.015625)"/>
      </defs>
      <use xlink:href="#DejaVuSerif-4d"/>
      <use xlink:href="#DejaVuSerif-6f" x="102.392578"/>
      <use xlink:href="#DejaVuSerif-6e" x="162.597656"/>
      <use xlink:href="#DejaVuSerif-65" x="227.001953"/>
      <use xlink:href="#DejaVuSerif-74" x="286.181641"/>
      <use xlink:href="#DejaVuSerif-61" x="326.367188"/>
      <use xlink:href="#DejaVuSerif-72" x="385.986328"/>
      <use xlink:href="#DejaVuSerif-79" x="433.789062"/>
      <use xlink:href="#DejaVuSerif-20" x="490.283203"/>
      <use xlink:href="#DejaVuSerif-63" x="522.070312"/>
      <use xlink:href="#DejaVuSerif-6f" x="578.076172"/>
      <use xlink:href="#DejaVuSerif-73" x="638.28125"/>
      <use xlink:href="#DejaVuSerif-74" x="689.599609"/>
      <use xlink:href="#DejaVuSerif-20" x="729.785156"/>
      <use xlink:href="#DejaVuSerif-6f" x="761.572266"/>
      <use xlink:href="#DejaVuSerif-66" x="821.777344"/>
      <use xlink:href="#DejaVuSerif-20" x="858.789062"/>
      <use xlink:href="#DejaVuSerif-65" x="890.576172"/>
      <use xlink:href="#DejaVuSerif-78" x="949.755859"/>
      <use xlink:href="#DejaVuSerif-65" x="1006.152344"/>
      <use xlink:href="#DejaVuSerif-63" x="1065.332031"/>
      <use xlink:href="#DejaVuSerif-75" x="1121.337891"/>
      <use xlink:href="#DejaVuSerif-74" x="1185.742188"/>
      <use xlink:href="#DejaVuSerif-69" x="1225.927734"/>
      <use xlink:href="#DejaVuSerif-6f" x="1257.910156"/>
      <use xlink:href="#DejaVuSerif-6e" x="1318.115234"/>
      <use xlink:href="#DejaVuSerif-20" x="1382.519531"/>
      <use xlink:href="#DejaVuSerif-5b" x="1414.306641"/>
      <use xlink:href="#DejaVuSerif-6e" x="1453.320312"/>
      <use xlink:href="#DejaVuSerif-6f" x="1517.724609"/>
      <use xlink:href="#DejaVuSerif-72" x="1577.929688"/>
      <use xlink:href="#DejaVuSerif-6d" x="1625.732422"/>
      <use xlink:href="#DejaVuSerif-61" x="1720.556641"/>
      <use xlink:href="#DejaVuSerif-6c" x="1780.175781"/>
      <use xlink:href="#DejaVuSerif-69" x="1812.158203"/>
      <use xlink:href="#DejaVuSerif-7a" x="1844.140625"/>
      <use xlink:href="#DejaVuSerif-65" x="1896.826172"/>
      <use xlink:href="#DejaVuSerif-64" x="1956.005859"/>
      <use xlink:href="#DejaVuSerif-5d" x="2020.019531"/>
     </g>
    </g>
   </g>
   <g id="line2d_35">
    <path d="M 46.869531 111.284231 
L 82.216441 124.186794 
L 102.893057 134.627222 
L 128.942514 148.934057 
L 138.239967 154.524359 
L 152.91026 162.821156 
L 169.149748 171.498886 
L 177.668639 176.421202 
L 214.94011 198.737975 
L 231.007608 206.897 
L 242.110376 212.275062 
L 251.22273 216.44306 
L 259.741621 220.096491 
L 267.71446 223.279677 
L 275.766695 226.249636 
L 282.21673 228.434214 
L 290.580031 230.657876 
L 299.230607 232.720791 
L 307.860659 234.549284 
L 316.800611 236.21703 
L 326.140755 237.733163 
L 336.004038 239.10779 
L 346.603557 240.355835 
L 357.954144 241.464588 
L 370.374515 242.450021 
L 384.11781 243.312533 
L 392.899291 243.68681 
L 403.989531 244.055061 
L 403.989531 244.055061 
" clip-path="url(#p522b46ae6f)" style="fill: none; stroke: #1f77b4; stroke-width: 1.5; stroke-linecap: square"/>
   </g>
   <g id="line2d_36">
    <path d="M 46.869531 248.42556 
L 82.216441 251.161564 
L 102.893057 252.590519 
L 117.56335 252.926461 
L 128.942514 252.765272 
L 138.239967 252.372782 
L 146.100852 251.62959 
L 152.91026 250.681095 
L 158.916583 249.532682 
L 169.149748 247.000032 
L 177.668639 244.557032 
L 181.447761 243.367678 
L 188.257169 240.845901 
L 194.263493 238.359635 
L 199.636333 235.956245 
L 204.496657 233.469455 
L 211.015496 229.856308 
L 214.94011 227.426407 
L 220.312949 223.675583 
L 226.69562 218.935736 
L 233.692165 213.394547 
L 239.843567 208.238163 
L 246.362405 202.504265 
L 253.931055 195.536489 
L 262.042529 187.759954 
L 272.207473 177.688703 
L 283.21666 166.50928 
L 298.502097 150.400323 
L 307.554383 141.180065 
L 315.239423 133.659104 
L 322.378044 126.985916 
L 329.043683 121.064985 
L 335.295765 115.807104 
L 341.341696 111.009089 
L 347.312815 106.554943 
L 353.162376 102.468749 
L 358.972942 98.680736 
L 364.792128 95.153791 
L 370.642675 91.870182 
L 376.52999 88.822401 
L 382.51866 85.974839 
L 389.933641 82.724619 
L 396.082266 80.252676 
L 402.43627 77.938984 
L 403.989531 77.408594 
L 403.989531 77.408594 
" clip-path="url(#p522b46ae6f)" style="fill: none; stroke: #ff7f0e; stroke-width: 1.5; stroke-linecap: square"/>
   </g>
   <g id="line2d_37">
    <path d="M 46.869531 264.910285 
L 82.216441 263.062319 
L 102.893057 260.313356 
L 117.56335 256.73973 
L 128.942514 252.899311 
L 138.239967 249.016779 
L 146.100852 245.087914 
L 152.91026 241.159408 
L 158.916583 237.180953 
L 164.289423 233.148124 
L 169.149748 229.230234 
L 173.586876 225.420807 
L 177.668639 221.713951 
L 181.447761 218.104288 
L 184.96604 214.521178 
L 191.34871 207.525918 
L 197.020641 200.849028 
L 199.636333 197.621559 
L 204.496657 191.140383 
L 208.933786 184.886903 
L 213.015549 178.857309 
L 216.794671 172.672783 
L 221.98506 163.71604 
L 226.69562 155.202523 
L 232.36755 144.480557 
L 238.671221 131.990065 
L 245.332172 118.184842 
L 252.14158 103.499614 
L 259.741621 86.538442 
L 269.039075 65.184654 
L 283.21666 31.957629 
L 295.867093 1.955337 
L 297.133367 -1 
L 297.133367 -1 
" clip-path="url(#p522b46ae6f)" style="fill: none; stroke: #2ca02c; stroke-width: 1.5; stroke-linecap: square"/>
   </g>
   <g id="line2d_38">
    <path d="M 46.869531 248.798197 
L 82.216441 246.464289 
L 102.893057 243.291707 
L 117.56335 239.336239 
L 128.942514 235.076632 
L 138.239967 230.811546 
L 146.100852 226.480603 
L 152.91026 222.132305 
L 158.916583 217.740074 
L 164.289423 213.340265 
L 169.149748 209.072782 
L 173.586876 204.929818 
L 177.668639 200.904288 
L 181.447761 196.989737 
L 184.96604 193.089806 
L 191.34871 185.462749 
L 197.020641 178.195519 
L 202.124378 171.168154 
L 206.763466 164.29836 
L 211.015496 157.707988 
L 214.94011 151.192454 
L 220.312949 141.488931 
L 225.173274 132.287818 
L 231.007608 120.728398 
L 237.471287 107.299159 
L 243.207081 94.873597 
L 250.287019 78.946751 
L 258.147904 60.619295 
L 267.039022 39.279229 
L 281.709315 3.378776 
L 283.455328 -1 
L 283.455328 -1 
" clip-path="url(#p522b46ae6f)" style="fill: none; stroke: #d62728; stroke-width: 1.5; stroke-linecap: square"/>
   </g>
   <g id="line2d_39">
    <path d="M 46.869531 205.335803 
L 102.893057 209.830904 
L 117.56335 210.3777 
L 128.942514 210.41466 
L 138.239967 210.211668 
L 146.100852 209.564262 
L 152.91026 208.676334 
L 158.916583 207.575474 
L 169.149748 205.162303 
L 177.668639 202.834554 
L 181.447761 201.701308 
L 188.257169 199.278715 
L 194.263493 196.885797 
L 199.636333 194.572643 
L 204.496657 192.193789 
L 211.015496 188.740169 
L 213.015549 187.612468 
L 216.794671 185.134056 
L 223.604079 180.322612 
L 229.610402 175.794193 
L 236.242437 170.49498 
L 243.207081 164.611772 
L 250.287019 158.327436 
L 258.147904 151.040691 
L 267.039022 142.49091 
L 280.156053 129.521572 
L 284.19736 125.364503 
L 298.867653 110.060032 
L 307.860659 100.995265 
L 315.502963 93.595455 
L 322.607234 87.025483 
L 329.244846 81.192761 
L 335.473758 76.01055 
L 341.49982 71.279402 
L 347.45349 66.885463 
L 353.287824 62.852919 
L 359.084895 59.113288 
L 364.89202 55.630219 
L 370.731749 52.386444 
L 376.60936 49.374759 
L 382.589241 46.560158 
L 394.319851 41.400772 
L 400.487807 38.974043 
L 403.989531 37.699665 
L 403.989531 37.699665 
" clip-path="url(#p522b46ae6f)" style="fill: none; stroke: #9467bd; stroke-width: 1.5; stroke-linecap: square"/>
   </g>
   <g id="line2d_40">
    <path d="M 285.682796 -1 
L 290.580031 5.064017 
L 295.479298 10.761852 
L 300.304222 16.021392 
L 305.035608 20.849822 
L 309.660663 25.265432 
L 314.440533 29.524955 
L 319.300857 33.553192 
L 324.183358 37.30706 
L 329.043683 40.767717 
L 334.032112 44.049204 
L 339.074887 47.104799 
L 344.265276 49.992847 
L 349.653068 52.734023 
L 355.133435 55.273798 
L 360.843511 57.674409 
L 366.753709 59.917229 
L 372.909484 62.01493 
L 379.387374 63.984811 
L 386.131025 65.802938 
L 391.080997 66.687083 
L 399.737502 68.049747 
L 403.989531 68.642742 
L 403.989531 68.642742 
" clip-path="url(#p522b46ae6f)" style="fill: none; stroke: #8c564b; stroke-width: 1.5; stroke-linecap: square"/>
   </g>
   <g id="line2d_41">
    <path d="M 46.869531 201.259081 
L 82.216441 197.996467 
L 102.893057 194.027361 
L 117.56335 189.414492 
L 128.942514 184.61569 
L 138.239967 179.861313 
L 146.100852 174.810037 
L 152.91026 169.669243 
L 158.916583 164.496189 
L 164.289423 159.369642 
L 169.149748 154.42654 
L 173.586876 149.65465 
L 177.668639 145.042938 
L 181.447761 140.581415 
L 184.96604 136.142398 
L 191.34871 127.496396 
L 197.020641 119.323189 
L 202.124378 111.494181 
L 206.763466 103.918461 
L 213.015549 93.189749 
L 216.794671 86.011197 
L 221.98506 75.683175 
L 228.173834 62.817057 
L 234.983242 48.009071 
L 242.110376 31.845376 
L 249.333817 14.860328 
L 255.894759 -1 
L 255.894759 -1 
" clip-path="url(#p522b46ae6f)" style="fill: none; stroke: #e377c2; stroke-width: 1.5; stroke-linecap: square"/>
   </g>
   <g id="line2d_42">
    <path d="M 46.869531 251.642414 
L 82.216441 253.898014 
L 102.893057 254.948054 
L 117.56335 254.97095 
L 128.942514 254.516878 
L 138.239967 253.875479 
L 146.100852 253.029461 
L 152.91026 252.042385 
L 158.916583 250.892705 
L 169.149748 248.400757 
L 177.668639 245.997019 
L 181.447761 244.826779 
L 188.257169 242.368301 
L 194.263493 239.949553 
L 199.636333 237.61143 
L 204.496657 235.19758 
L 211.015496 231.691414 
L 213.015549 230.548159 
L 216.794671 228.062292 
L 223.604079 223.240437 
L 229.610402 218.702221 
L 236.242437 213.391543 
L 243.207081 207.495606 
L 250.287019 201.197673 
L 258.147904 193.895162 
L 267.039022 185.326882 
L 280.156053 172.329484 
L 286.10393 166.241839 
L 299.590996 152.467312 
L 308.467747 143.711014 
L 316.285507 136.312002 
L 323.288689 129.988636 
L 329.843618 124.365219 
L 336.179579 119.222908 
L 342.283166 114.555179 
L 348.289489 110.243051 
L 354.157428 106.302101 
L 359.971784 102.660837 
L 365.78235 99.279864 
L 371.701428 96.093785 
L 377.630075 93.154248 
L 383.705451 90.391643 
L 392.494339 86.694783 
L 398.770988 84.315558 
L 403.989531 82.511381 
L 403.989531 82.511381 
" clip-path="url(#p522b46ae6f)" style="fill: none; stroke: #7f7f7f; stroke-width: 3.5; stroke-linecap: square"/>
   </g>
   <g id="line2d_43">
    <path d="M 46.869531 257.208992 
L 82.216441 259.582094 
L 102.893057 260.665052 
L 117.56335 260.672922 
L 128.942514 260.204127 
L 138.239967 259.533652 
L 146.100852 258.651186 
L 152.91026 257.623569 
L 158.916583 256.427128 
L 169.149748 253.807351 
L 177.668639 251.280309 
L 181.447761 250.050039 
L 188.257169 247.472022 
L 194.263493 244.937156 
L 199.636333 242.486786 
L 204.496657 239.947509 
L 211.015496 236.257383 
L 214.94011 233.770729 
L 220.312949 229.918853 
L 226.69562 225.051307 
L 232.36755 220.465938 
L 238.671221 215.094965 
L 245.332172 209.125614 
L 253.044167 201.876211 
L 261.287037 193.791174 
L 270.963636 183.97299 
L 283.21666 171.232235 
L 298.502097 154.926138 
L 307.554383 145.593042 
L 315.239423 137.98004 
L 322.147818 131.437794 
L 328.63896 125.586518 
L 334.937905 120.206087 
L 341.023971 115.300811 
L 346.888445 110.855071 
L 352.657473 106.754035 
L 358.409458 102.93357 
L 364.188632 99.361371 
L 370.014762 96.023937 
L 375.890549 92.917426 
L 381.807423 90.041459 
L 388.697343 86.958875 
L 394.821718 84.426648 
L 401.080202 82.079461 
L 403.989531 81.066275 
L 403.989531 81.066275 
" clip-path="url(#p522b46ae6f)" style="fill: none; stroke: #bcbd22; stroke-width: 3.5; stroke-linecap: square"/>
   </g>
   <g id="line2d_44">
    <path d="M 46.869531 152.006022 
L 82.216441 162.839511 
L 102.893057 171.381113 
L 117.56335 177.968596 
L 128.942514 183.412624 
L 138.239967 188.203572 
L 152.91026 195.450565 
L 169.149748 202.859019 
L 177.668639 207.037459 
L 202.124378 219.432353 
L 214.94011 225.580437 
L 232.36755 232.731516 
L 243.207081 236.957153 
L 253.044167 240.564404 
L 262.042529 243.636386 
L 270.963636 246.444904 
L 279.627605 248.935612 
L 284.19736 250.0771 
L 293.494813 252.058503 
L 303.061369 253.860263 
L 312.804195 255.462417 
L 322.835399 256.886018 
L 333.480812 258.171042 
L 344.859975 259.318547 
L 357.263458 260.341234 
L 370.909431 261.237431 
L 386.131025 262.009156 
L 402.43627 262.492835 
L 403.989531 262.531695 
L 403.989531 262.531695 
" clip-path="url(#p522b46ae6f)" style="fill: none; stroke: #17becf; stroke-width: 1.5; stroke-linecap: square"/>
   </g>
   <g id="line2d_45">
    <path d="M 46.869531 226.10556 
L 82.216441 229.210319 
L 102.893057 230.587566 
L 117.56335 230.480583 
L 128.942514 229.72005 
L 138.239967 228.700767 
L 146.100852 227.405612 
L 152.91026 225.962026 
L 158.916583 224.35011 
L 164.289423 222.58029 
L 169.149748 220.842359 
L 177.668639 217.458777 
L 181.447761 215.811506 
L 188.257169 212.441072 
L 194.263493 209.145539 
L 199.636333 205.959857 
L 204.496657 202.630509 
L 211.015496 197.78704 
L 213.015549 196.213175 
L 216.794671 192.832413 
L 221.98506 187.861924 
L 228.173834 181.578244 
L 233.692165 175.656215 
L 239.843567 168.716337 
L 246.362405 160.999192 
L 253.044167 152.741356 
L 260.520183 143.147485 
L 269.688699 130.992866 
L 282.719146 113.293656 
L 297.763029 92.452899 
L 306.62436 80.562007 
L 314.17143 70.810654 
L 320.980838 62.382664 
L 327.196586 55.039932 
L 333.109939 48.392768 
L 338.742672 42.385217 
L 344.265276 36.812736 
L 349.653068 31.684658 
L 355.012451 26.887089 
L 360.300431 22.448119 
L 365.585838 18.299116 
L 370.909431 14.403934 
L 376.211272 10.798765 
L 381.592104 7.408773 
L 387.237528 4.119586 
L 392.726134 1.140801 
L 396.982375 -1 
L 396.982375 -1 
" clip-path="url(#p522b46ae6f)" style="fill: none; stroke-dasharray: 10.5,3.5; stroke-dashoffset: 0; stroke: #000000; stroke-width: 3.5"/>
   </g>
   <g id="line2d_46">
    <path d="M 46.869531 232.463455 
L 82.216441 235.170011 
L 102.893057 236.349656 
L 117.56335 236.233407 
L 128.942514 235.548715 
L 138.239967 234.629571 
L 146.100852 233.484751 
L 152.91026 232.197737 
L 158.916583 230.747573 
L 164.289423 229.161282 
L 173.586876 226.073679 
L 181.447761 223.094414 
L 188.257169 220.056398 
L 194.263493 217.081921 
L 199.636333 214.206593 
L 204.496657 211.21932 
L 211.015496 206.876745 
L 213.015549 205.464962 
L 216.794671 202.432624 
L 221.98506 197.979036 
L 228.173834 192.34882 
L 233.692165 187.042646 
L 239.843567 180.824474 
L 246.362405 173.909865 
L 253.044167 166.510794 
L 261.287037 157.016691 
L 270.963636 145.487388 
L 283.21666 130.53018 
L 298.133902 111.882736 
L 306.936256 101.231091 
L 314.440533 92.489395 
L 321.21638 84.929239 
L 327.612873 78.123319 
L 333.665241 72.005896 
L 339.569186 66.357567 
L 345.301491 61.185 
L 350.849872 56.475374 
L 356.327748 52.112773 
L 361.806716 48.032093 
L 367.232537 44.264464 
L 372.738647 40.711661 
L 378.248202 37.419883 
L 383.843275 34.335093 
L 391.497284 30.413995 
L 397.259534 27.723112 
L 403.195276 25.197637 
L 403.989531 24.877743 
L 403.989531 24.877743 
" clip-path="url(#p522b46ae6f)" style="fill: none; stroke-dasharray: 10.5,3.5; stroke-dashoffset: 0; stroke: #7f7f7f; stroke-width: 3.5"/>
   </g>
   <g id="line2d_47">
    <path d="M 46.869531 240.703655 
L 82.216441 243.398135 
L 102.893057 244.502886 
L 117.56335 244.292209 
L 128.942514 243.520836 
L 138.239967 242.516888 
L 146.100852 241.314761 
L 152.91026 239.986773 
L 158.916583 238.502628 
L 164.289423 236.876407 
L 173.586876 233.711084 
L 181.447761 230.656825 
L 188.257169 227.552427 
L 194.263493 224.51529 
L 199.636333 221.579391 
L 204.496657 218.518435 
L 211.015496 214.066763 
L 213.015549 212.620538 
L 216.794671 209.519897 
L 221.98506 204.962101 
L 228.173834 199.200145 
L 233.692165 193.769814 
L 239.843567 187.406143 
L 246.362405 180.329742 
L 253.044167 172.757542 
L 260.520183 163.960235 
L 269.688699 152.814796 
L 282.719146 136.583468 
L 298.133902 116.976778 
L 306.936256 106.141936 
L 314.440533 97.249893 
L 321.21638 89.559711 
L 327.612873 82.636736 
L 333.665241 76.414101 
L 339.404952 70.82401 
L 345.007572 65.669186 
L 350.586333 60.837274 
L 356.091112 56.364565 
L 361.487665 52.261885 
L 366.94578 48.391279 
L 372.395246 44.799098 
L 377.862752 41.459017 
L 383.42868 38.319119 
L 389.933641 34.924732 
L 395.64734 32.186556 
L 401.520026 29.618523 
L 403.989531 28.609181 
L 403.989531 28.609181 
" clip-path="url(#p522b46ae6f)" style="fill: none; stroke-dasharray: 10.5,3.5; stroke-dashoffset: 0; stroke: #bcbd22; stroke-width: 3.5"/>
   </g>
   <g id="line2d_48">
    <path d="M 179.215577 318.932469 
L 179.215577 -1 
" clip-path="url(#p522b46ae6f)" style="fill: none; stroke: #008000; stroke-width: 0.5; stroke-linecap: square"/>
   </g>
   <g id="line2d_49">
    <path d="M 190.336839 318.932469 
L 190.336839 -1 
" clip-path="url(#p522b46ae6f)" style="fill: none; stroke: #008000; stroke-width: 0.5; stroke-linecap: square"/>
   </g>
   <g id="patch_3">
    <path d="M 46.869531 277.111219 
L 46.869531 10.999219 
" style="fill: none; stroke: #000000; stroke-width: 0.8; stroke-linejoin: miter; stroke-linecap: square"/>
   </g>
   <g id="patch_4">
    <path d="M 403.989531 277.111219 
L 403.989531 10.999219 
" style="fill: none; stroke: #000000; stroke-width: 0.8; stroke-linejoin: miter; stroke-linecap: square"/>
   </g>
   <g id="patch_5">
    <path d="M 46.869531 277.111219 
L 403.989531 277.111219 
" style="fill: none; stroke: #000000; stroke-width: 0.8; stroke-linejoin: miter; stroke-linecap: square"/>
   </g>
   <g id="patch_6">
    <path d="M 46.869531 10.999219 
L 403.989531 10.999219 
" style="fill: none; stroke: #000000; stroke-width: 0.8; stroke-linejoin: miter; stroke-linecap: square"/>
   </g>
   <g id="text_13">
    <!-- ^A -->
    <g style="fill: #008000" transform="translate(176.074922 285.915698) scale(0.095 -0.095)">
     <defs>
      <path id="DejaVuSerif-5e" d="M 2988 4666 
L 4684 2925 
L 4206 2925 
L 2681 4116 
L 1159 2925 
L 678 2925 
L 2375 4666 
L 2988 4666 
z
" transform="scale(0.015625)"/>
     </defs>
     <use xlink:href="#DejaVuSerif-5e"/>
     <use xlink:href="#DejaVuSerif-41" x="83.789062"/>
    </g>
   </g>
   <g id="text_14">
    <!-- ^B -->
    <g style="fill: #008000" transform="translate(188.257169 285.915698) scale(0.095 -0.095)">
     <use xlink:href="#DejaVuSerif-5e"/>
     <use xlink:href="#DejaVuSerif-42" x="83.789062"/>
    </g>
   </g>
   <g id="legend_1">
    <g id="patch_7">
     <path d="M 53.869531 209.814844 
L 106.124219 209.814844 
Q 108.124219 209.814844 108.124219 207.814844 
L 108.124219 17.999219 
Q 108.124219 15.999219 106.124219 15.999219 
L 53.869531 15.999219 
Q 51.869531 15.999219 51.869531 17.999219 
L 51.869531 207.814844 
Q 51.869531 209.814844 53.869531 209.814844 
z
" style="fill: #ffffff; opacity: 0.8; stroke: #cccccc; stroke-linejoin: miter"/>
    </g>
    <g id="line2d_50">
     <path d="M 55.869531 24.097656 
L 65.869531 24.097656 
L 75.869531 24.097656 
" style="fill: none; stroke: #1f77b4; stroke-width: 1.5; stroke-linecap: square"/>
    </g>
    <g id="text_15">
     <!-- R01 -->
     <g transform="translate(83.869531 27.597656) scale(0.1 -0.1)">
      <use xlink:href="#DejaVuSerif-52"/>
      <use xlink:href="#DejaVuSerif-30" x="75.292969"/>
      <use xlink:href="#DejaVuSerif-31" x="138.916016"/>
     </g>
    </g>
    <g id="line2d_51">
     <path d="M 55.869531 38.775781 
L 65.869531 38.775781 
L 75.869531 38.775781 
" style="fill: none; stroke: #ff7f0e; stroke-width: 1.5; stroke-linecap: square"/>
    </g>
    <g id="text_16">
     <!-- R02 -->
     <g transform="translate(83.869531 42.275781) scale(0.1 -0.1)">
      <use xlink:href="#DejaVuSerif-52"/>
      <use xlink:href="#DejaVuSerif-30" x="75.292969"/>
      <use xlink:href="#DejaVuSerif-32" x="138.916016"/>
     </g>
    </g>
    <g id="line2d_52">
     <path d="M 55.869531 53.453906 
L 65.869531 53.453906 
L 75.869531 53.453906 
" style="fill: none; stroke: #2ca02c; stroke-width: 1.5; stroke-linecap: square"/>
    </g>
    <g id="text_17">
     <!-- R03 -->
     <g transform="translate(83.869531 56.953906) scale(0.1 -0.1)">
      <use xlink:href="#DejaVuSerif-52"/>
      <use xlink:href="#DejaVuSerif-30" x="75.292969"/>
      <use xlink:href="#DejaVuSerif-33" x="138.916016"/>
     </g>
    </g>
    <g id="line2d_53">
     <path d="M 55.869531 68.132031 
L 65.869531 68.132031 
L 75.869531 68.132031 
" style="fill: none; stroke: #d62728; stroke-width: 1.5; stroke-linecap: square"/>
    </g>
    <g id="text_18">
     <!-- R04 -->
     <g transform="translate(83.869531 71.632031) scale(0.1 -0.1)">
      <defs>
       <path id="DejaVuSerif-34" d="M 2234 1581 
L 2234 4063 
L 641 1581 
L 2234 1581 
z
M 3609 0 
L 1484 0 
L 1484 331 
L 2234 331 
L 2234 1247 
L 197 1247 
L 197 1588 
L 2241 4750 
L 2859 4750 
L 2859 1581 
L 3750 1581 
L 3750 1247 
L 2859 1247 
L 2859 331 
L 3609 331 
L 3609 0 
z
" transform="scale(0.015625)"/>
      </defs>
      <use xlink:href="#DejaVuSerif-52"/>
      <use xlink:href="#DejaVuSerif-30" x="75.292969"/>
      <use xlink:href="#DejaVuSerif-34" x="138.916016"/>
     </g>
    </g>
    <g id="line2d_54">
     <path d="M 55.869531 82.810156 
L 65.869531 82.810156 
L 75.869531 82.810156 
" style="fill: none; stroke: #9467bd; stroke-width: 1.5; stroke-linecap: square"/>
    </g>
    <g id="text_19">
     <!-- R05 -->
     <g transform="translate(83.869531 86.310156) scale(0.1 -0.1)">
      <use xlink:href="#DejaVuSerif-52"/>
      <use xlink:href="#DejaVuSerif-30" x="75.292969"/>
      <use xlink:href="#DejaVuSerif-35" x="138.916016"/>
     </g>
    </g>
    <g id="line2d_55">
     <path d="M 55.869531 97.488281 
L 65.869531 97.488281 
L 75.869531 97.488281 
" style="fill: none; stroke: #8c564b; stroke-width: 1.5; stroke-linecap: square"/>
    </g>
    <g id="text_20">
     <!-- R06 -->
     <g transform="translate(83.869531 100.988281) scale(0.1 -0.1)">
      <defs>
       <path id="DejaVuSerif-36" d="M 2094 219 
Q 2534 219 2771 542 
Q 3009 866 3009 1472 
Q 3009 2078 2771 2401 
Q 2534 2725 2094 2725 
Q 1647 2725 1412 2412 
Q 1178 2100 1178 1509 
Q 1178 888 1415 553 
Q 1653 219 2094 219 
z
M 1075 2569 
Q 1288 2803 1556 2918 
Q 1825 3034 2163 3034 
Q 2859 3034 3264 2615 
Q 3669 2197 3669 1472 
Q 3669 763 3233 336 
Q 2797 -91 2069 -91 
Q 1278 -91 853 498 
Q 428 1088 428 2181 
Q 428 3406 931 4078 
Q 1434 4750 2350 4750 
Q 2597 4750 2869 4703 
Q 3141 4656 3425 4563 
L 3425 3794 
L 3072 3794 
Q 3034 4109 2831 4275 
Q 2628 4441 2284 4441 
Q 1678 4441 1381 3981 
Q 1084 3522 1075 2569 
z
" transform="scale(0.015625)"/>
      </defs>
      <use xlink:href="#DejaVuSerif-52"/>
      <use xlink:href="#DejaVuSerif-30" x="75.292969"/>
      <use xlink:href="#DejaVuSerif-36" x="138.916016"/>
     </g>
    </g>
    <g id="line2d_56">
     <path d="M 55.869531 112.166406 
L 65.869531 112.166406 
L 75.869531 112.166406 
" style="fill: none; stroke: #e377c2; stroke-width: 1.5; stroke-linecap: square"/>
    </g>
    <g id="text_21">
     <!-- R07 -->
     <g transform="translate(83.869531 115.666406) scale(0.1 -0.1)">
      <defs>
       <path id="DejaVuSerif-37" d="M 3609 4347 
L 1784 0 
L 1319 0 
L 3059 4153 
L 903 4153 
L 903 3578 
L 538 3578 
L 538 4666 
L 3609 4666 
L 3609 4347 
z
" transform="scale(0.015625)"/>
      </defs>
      <use xlink:href="#DejaVuSerif-52"/>
      <use xlink:href="#DejaVuSerif-30" x="75.292969"/>
      <use xlink:href="#DejaVuSerif-37" x="138.916016"/>
     </g>
    </g>
    <g id="line2d_57">
     <path d="M 55.869531 126.844531 
L 65.869531 126.844531 
L 75.869531 126.844531 
" style="fill: none; stroke: #7f7f7f; stroke-width: 3.5; stroke-linecap: square"/>
    </g>
    <g id="text_22">
     <!-- R08 -->
     <g transform="translate(83.869531 130.344531) scale(0.1 -0.1)">
      <defs>
       <path id="DejaVuSerif-38" d="M 2981 1275 
Q 2981 1775 2732 2051 
Q 2484 2328 2034 2328 
Q 1584 2328 1336 2051 
Q 1088 1775 1088 1275 
Q 1088 772 1336 495 
Q 1584 219 2034 219 
Q 2484 219 2732 495 
Q 2981 772 2981 1275 
z
M 2853 3541 
Q 2853 3966 2637 4203 
Q 2422 4441 2034 4441 
Q 1650 4441 1433 4203 
Q 1216 3966 1216 3541 
Q 1216 3113 1433 2875 
Q 1650 2638 2034 2638 
Q 2422 2638 2637 2875 
Q 2853 3113 2853 3541 
z
M 2516 2484 
Q 3047 2413 3344 2092 
Q 3641 1772 3641 1275 
Q 3641 619 3225 264 
Q 2809 -91 2034 -91 
Q 1263 -91 845 264 
Q 428 619 428 1275 
Q 428 1772 725 2092 
Q 1022 2413 1556 2484 
Q 1084 2569 832 2842 
Q 581 3116 581 3541 
Q 581 4103 968 4426 
Q 1356 4750 2034 4750 
Q 2713 4750 3100 4426 
Q 3488 4103 3488 3541 
Q 3488 3116 3236 2842 
Q 2984 2569 2516 2484 
z
" transform="scale(0.015625)"/>
      </defs>
      <use xlink:href="#DejaVuSerif-52"/>
      <use xlink:href="#DejaVuSerif-30" x="75.292969"/>
      <use xlink:href="#DejaVuSerif-38" x="138.916016"/>
     </g>
    </g>
    <g id="line2d_58">
     <path d="M 55.869531 141.522656 
L 65.869531 141.522656 
L 75.869531 141.522656 
" style="fill: none; stroke: #bcbd22; stroke-width: 3.5; stroke-linecap: square"/>
    </g>
    <g id="text_23">
     <!-- R09 -->
     <g transform="translate(83.869531 145.022656) scale(0.1 -0.1)">
      <defs>
       <path id="DejaVuSerif-39" d="M 2994 2091 
Q 2784 1856 2512 1740 
Q 2241 1625 1900 1625 
Q 1206 1625 804 2044 
Q 403 2463 403 3188 
Q 403 3897 839 4323 
Q 1275 4750 2003 4750 
Q 2794 4750 3217 4161 
Q 3641 3572 3641 2478 
Q 3641 1253 3137 581 
Q 2634 -91 1722 -91 
Q 1475 -91 1203 -44 
Q 931 3 647 97 
L 647 872 
L 997 872 
Q 1038 556 1241 387 
Q 1444 219 1784 219 
Q 2391 219 2687 676 
Q 2984 1134 2994 2091 
z
M 1978 4441 
Q 1534 4441 1298 4117 
Q 1063 3794 1063 3188 
Q 1063 2581 1298 2256 
Q 1534 1931 1978 1931 
Q 2422 1931 2658 2245 
Q 2894 2559 2894 3150 
Q 2894 3772 2656 4106 
Q 2419 4441 1978 4441 
z
" transform="scale(0.015625)"/>
      </defs>
      <use xlink:href="#DejaVuSerif-52"/>
      <use xlink:href="#DejaVuSerif-30" x="75.292969"/>
      <use xlink:href="#DejaVuSerif-39" x="138.916016"/>
     </g>
    </g>
    <g id="line2d_59">
     <path d="M 55.869531 156.200781 
L 65.869531 156.200781 
L 75.869531 156.200781 
" style="fill: none; stroke: #17becf; stroke-width: 1.5; stroke-linecap: square"/>
    </g>
    <g id="text_24">
     <!-- R10 -->
     <g transform="translate(83.869531 159.700781) scale(0.1 -0.1)">
      <use xlink:href="#DejaVuSerif-52"/>
      <use xlink:href="#DejaVuSerif-31" x="75.292969"/>
      <use xlink:href="#DejaVuSerif-30" x="138.916016"/>
     </g>
    </g>
    <g id="line2d_60">
     <path d="M 55.869531 170.878906 
L 65.869531 170.878906 
L 75.869531 170.878906 
" style="fill: none; stroke-dasharray: 10.5,3.5; stroke-dashoffset: 0; stroke: #000000; stroke-width: 3.5"/>
    </g>
    <g id="text_25">
     <!-- S1 -->
     <g transform="translate(83.869531 174.378906) scale(0.1 -0.1)">
      <defs>
       <path id="DejaVuSerif-53" d="M 594 225 
L 594 1288 
L 953 1284 
Q 969 753 1261 498 
Q 1553 244 2150 244 
Q 2706 244 2998 464 
Q 3291 684 3291 1106 
Q 3291 1444 3114 1625 
Q 2938 1806 2369 1978 
L 1753 2163 
Q 1084 2366 811 2669 
Q 538 2972 538 3500 
Q 538 4094 959 4422 
Q 1381 4750 2144 4750 
Q 2469 4750 2856 4679 
Q 3244 4609 3681 4475 
L 3681 3481 
L 3328 3481 
Q 3275 3975 2998 4195 
Q 2722 4416 2156 4416 
Q 1663 4416 1405 4214 
Q 1147 4013 1147 3628 
Q 1147 3294 1340 3103 
Q 1534 2913 2163 2725 
L 2741 2553 
Q 3375 2363 3645 2067 
Q 3916 1772 3916 1275 
Q 3916 597 3481 253 
Q 3047 -91 2188 -91 
Q 1803 -91 1404 -12 
Q 1006 66 594 225 
z
" transform="scale(0.015625)"/>
      </defs>
      <use xlink:href="#DejaVuSerif-53"/>
      <use xlink:href="#DejaVuSerif-31" x="68.505859"/>
     </g>
    </g>
    <g id="line2d_61">
     <path d="M 55.869531 185.557031 
L 65.869531 185.557031 
L 75.869531 185.557031 
" style="fill: none; stroke-dasharray: 10.5,3.5; stroke-dashoffset: 0; stroke: #7f7f7f; stroke-width: 3.5"/>
    </g>
    <g id="text_26">
     <!-- S2 -->
     <g transform="translate(83.869531 189.057031) scale(0.1 -0.1)">
      <use xlink:href="#DejaVuSerif-53"/>
      <use xlink:href="#DejaVuSerif-32" x="68.505859"/>
     </g>
    </g>
    <g id="line2d_62">
     <path d="M 55.869531 200.235156 
L 65.869531 200.235156 
L 75.869531 200.235156 
" style="fill: none; stroke-dasharray: 10.5,3.5; stroke-dashoffset: 0; stroke: #bcbd22; stroke-width: 3.5"/>
    </g>
    <g id="text_27">
     <!-- S3 -->
     <g transform="translate(83.869531 203.735156) scale(0.1 -0.1)">
      <use xlink:href="#DejaVuSerif-53"/>
      <use xlink:href="#DejaVuSerif-33" x="68.505859"/>
     </g>
    </g>
   </g>
  </g>
 </g>
 <defs>
  <clipPath id="p522b46ae6f">
   <rect x="46.869531" y="10.999219" width="357.12" height="266.112"/>
  </clipPath>
 </defs>
</svg>
