<?xml version="1.0" encoding="utf-8" standalone="no"?>
<!DOCTYPE svg PUBLIC "-//W3C//DTD SVG 1.1//EN"
  "http://www.w3.org/Graphics/SVG/1.1/DTD/svg11.dtd">
<svg xmlns:xlink="http://www.w3.org/1999/xlink" width="406.9125pt" height="340.223562pt" viewBox="0 0 406.9125 340.223562" xmlns="http://www.w3.org/2000/svg" version="1.1">
 <metadata>
  <rdf:RDF xmlns:dc="http://purl.org/dc/elements/1.1/" xmlns:cc="http://creativecommons.org/ns#" xmlns:rdf="http://www.w3.org/1999/02/22-rdf-syntax-ns#">
   <cc:Work>
    <dc:type rdf:resource="http://purl.org/dc/dcmitype/StillImage"/>
    <dc:date>2024-11-08T20:29:02.529352</dc:date>
    <dc:format>image/svg+xml</dc:format>
    <dc:creator>
     <cc:Agent>
      <dc:title>Matplotlib v3.9.2, https://matplotlib.org/</dc:title>
     </cc:Agent>
    </dc:creator>
   </cc:Work>
  </rdf:RDF>
 </metadata>
 <defs>
  <style type="text/css">*{stroke-linejoin: round; stroke-linecap: butt}</style>
 </defs>
 <g id="figure_1">
  <g id="patch_1">
   <path d="M 0 340.223562 
L 406.9125 340.223562 
L 406.9125 0 
L 0 0 
z
" style="fill: #ffffff"/>
  </g>
  <g id="axes_1">
   <g id="patch_2">
    <path d="M 42.5925 292.989187 
L 399.7125 292.989187 
L 399.7125 26.877187 
L 42.5925 26.877187 
z
" style="fill: #ffffff"/>
   </g>
   <g id="PathCollection_1">
    <defs>
     <path id="m8608cea101" d="M 0 -4.330127 
L -0.972174 -1.338083 
L -4.118196 -1.338083 
L -1.573011 0.511102 
L -2.545185 3.503146 
L -0 1.653961 
L 2.545185 3.503146 
L 1.573011 0.511102 
L 4.118196 -1.338083 
L 0.972174 -1.338083 
z
" style="stroke: #e377c2"/>
    </defs>
    <g clip-path="url(#pa70b25dd3e)">
     <use xlink:href="#m8608cea101" x="58.825227" y="169.058526" style="fill: #e377c2; stroke: #e377c2"/>
     <use xlink:href="#m8608cea101" x="58.825227" y="183.573526" style="fill: #e377c2; stroke: #e377c2"/>
     <use xlink:href="#m8608cea101" x="58.825227" y="184.046676" style="fill: #e377c2; stroke: #e377c2"/>
     <use xlink:href="#m8608cea101" x="58.825227" y="208.240291" style="fill: #e377c2; stroke: #e377c2"/>
     <use xlink:href="#m8608cea101" x="58.825227" y="233.686768" style="fill: #e377c2; stroke: #e377c2"/>
     <use xlink:href="#m8608cea101" x="58.825227" y="231.496925" style="fill: #e377c2; stroke: #e377c2"/>
     <use xlink:href="#m8608cea101" x="200.253847" y="93.314012" style="fill: #e377c2; stroke: #e377c2"/>
     <use xlink:href="#m8608cea101" x="61.013146" y="230.638045" style="fill: #e377c2; stroke: #e377c2"/>
     <use xlink:href="#m8608cea101" x="71.35958" y="202.64523" style="fill: #e377c2; stroke: #e377c2"/>
     <use xlink:href="#m8608cea101" x="85.206939" y="223.995663" style="fill: #e377c2; stroke: #e377c2"/>
     <use xlink:href="#m8608cea101" x="383.479773" y="38.973187" style="fill: #e377c2; stroke: #e377c2"/>
     <use xlink:href="#m8608cea101" x="122.595733" y="201.083219" style="fill: #e377c2; stroke: #e377c2"/>
     <use xlink:href="#m8608cea101" x="60.478209" y="213.008849" style="fill: #e377c2; stroke: #e377c2"/>
     <use xlink:href="#m8608cea101" x="58.825227" y="236.831592" style="fill: #e377c2; stroke: #e377c2"/>
     <use xlink:href="#m8608cea101" x="84.762208" y="223.669299" style="fill: #e377c2; stroke: #e377c2"/>
     <use xlink:href="#m8608cea101" x="71.235067" y="229.592032" style="fill: #e377c2; stroke: #e377c2"/>
     <use xlink:href="#m8608cea101" x="58.825227" y="213.040541" style="fill: #e377c2; stroke: #e377c2"/>
     <use xlink:href="#m8608cea101" x="58.825227" y="236.886891" style="fill: #e377c2; stroke: #e377c2"/>
    </g>
   </g>
   <g id="matplotlib.axis_1">
    <g id="xtick_1">
     <g id="line2d_1">
      <defs>
       <path id="m714b6c179b" d="M 0 0 
L 0 3.5 
" style="stroke: #000000; stroke-width: 0.8"/>
      </defs>
      <g>
       <use xlink:href="#m714b6c179b" x="58.825227" y="292.989187" style="stroke: #000000; stroke-width: 0.8"/>
      </g>
     </g>
     <g id="text_1">
      <!-- 1.0 -->
      <g transform="translate(47.69304 310.627) scale(0.14 -0.14)">
       <defs>
        <path id="DejaVuSerif-31" d="M 909 0 
L 909 331 
L 1722 331 
L 1722 4213 
L 781 3603 
L 781 4013 
L 1919 4750 
L 2350 4750 
L 2350 331 
L 3163 331 
L 3163 0 
L 909 0 
z
" transform="scale(0.015625)"/>
        <path id="DejaVuSerif-2e" d="M 603 325 
Q 603 500 722 622 
Q 841 744 1019 744 
Q 1191 744 1312 622 
Q 1434 500 1434 325 
Q 1434 153 1312 31 
Q 1191 -91 1019 -91 
Q 841 -91 722 29 
Q 603 150 603 325 
z
" transform="scale(0.015625)"/>
        <path id="DejaVuSerif-30" d="M 2034 219 
Q 2513 219 2750 744 
Q 2988 1269 2988 2328 
Q 2988 3391 2750 3916 
Q 2513 4441 2034 4441 
Q 1556 4441 1318 3916 
Q 1081 3391 1081 2328 
Q 1081 1269 1318 744 
Q 1556 219 2034 219 
z
M 2034 -91 
Q 1275 -91 848 546 
Q 422 1184 422 2328 
Q 422 3475 848 4112 
Q 1275 4750 2034 4750 
Q 2797 4750 3222 4112 
Q 3647 3475 3647 2328 
Q 3647 1184 3222 546 
Q 2797 -91 2034 -91 
z
" transform="scale(0.015625)"/>
       </defs>
       <use xlink:href="#DejaVuSerif-31"/>
       <use xlink:href="#DejaVuSerif-2e" x="63.623047"/>
       <use xlink:href="#DejaVuSerif-30" x="95.410156"/>
      </g>
     </g>
    </g>
    <g id="xtick_2">
     <g id="line2d_2">
      <g>
       <use xlink:href="#m714b6c179b" x="123.49914" y="292.989187" style="stroke: #000000; stroke-width: 0.8"/>
      </g>
     </g>
     <g id="text_2">
      <!-- 1.2 -->
      <g transform="translate(112.366952 310.627) scale(0.14 -0.14)">
       <defs>
        <path id="DejaVuSerif-32" d="M 819 3553 
L 469 3553 
L 469 4384 
Q 803 4563 1142 4656 
Q 1481 4750 1806 4750 
Q 2534 4750 2956 4397 
Q 3378 4044 3378 3438 
Q 3378 2753 2422 1800 
Q 2347 1728 2309 1691 
L 1131 513 
L 3078 513 
L 3078 1088 
L 3444 1088 
L 3444 0 
L 434 0 
L 434 341 
L 1850 1753 
Q 2319 2222 2519 2614 
Q 2719 3006 2719 3438 
Q 2719 3909 2473 4175 
Q 2228 4441 1797 4441 
Q 1350 4441 1106 4219 
Q 863 3997 819 3553 
z
" transform="scale(0.015625)"/>
       </defs>
       <use xlink:href="#DejaVuSerif-31"/>
       <use xlink:href="#DejaVuSerif-2e" x="63.623047"/>
       <use xlink:href="#DejaVuSerif-32" x="95.410156"/>
      </g>
     </g>
    </g>
    <g id="xtick_3">
     <g id="line2d_3">
      <g>
       <use xlink:href="#m714b6c179b" x="188.173052" y="292.989187" style="stroke: #000000; stroke-width: 0.8"/>
      </g>
     </g>
     <g id="text_3">
      <!-- 1.4 -->
      <g transform="translate(177.040865 310.627) scale(0.14 -0.14)">
       <defs>
        <path id="DejaVuSerif-34" d="M 2234 1581 
L 2234 4063 
L 641 1581 
L 2234 1581 
z
M 3609 0 
L 1484 0 
L 1484 331 
L 2234 331 
L 2234 1247 
L 197 1247 
L 197 1588 
L 2241 4750 
L 2859 4750 
L 2859 1581 
L 3750 1581 
L 3750 1247 
L 2859 1247 
L 2859 331 
L 3609 331 
L 3609 0 
z
" transform="scale(0.015625)"/>
       </defs>
       <use xlink:href="#DejaVuSerif-31"/>
       <use xlink:href="#DejaVuSerif-2e" x="63.623047"/>
       <use xlink:href="#DejaVuSerif-34" x="95.410156"/>
      </g>
     </g>
    </g>
    <g id="xtick_4">
     <g id="line2d_4">
      <g>
       <use xlink:href="#m714b6c179b" x="252.846965" y="292.989187" style="stroke: #000000; stroke-width: 0.8"/>
      </g>
     </g>
     <g id="text_4">
      <!-- 1.6 -->
      <g transform="translate(241.714777 310.627) scale(0.14 -0.14)">
       <defs>
        <path id="DejaVuSerif-36" d="M 2094 219 
Q 2534 219 2771 542 
Q 3009 866 3009 1472 
Q 3009 2078 2771 2401 
Q 2534 2725 2094 2725 
Q 1647 2725 1412 2412 
Q 1178 2100 1178 1509 
Q 1178 888 1415 553 
Q 1653 219 2094 219 
z
M 1075 2569 
Q 1288 2803 1556 2918 
Q 1825 3034 2163 3034 
Q 2859 3034 3264 2615 
Q 3669 2197 3669 1472 
Q 3669 763 3233 336 
Q 2797 -91 2069 -91 
Q 1278 -91 853 498 
Q 428 1088 428 2181 
Q 428 3406 931 4078 
Q 1434 4750 2350 4750 
Q 2597 4750 2869 4703 
Q 3141 4656 3425 4563 
L 3425 3794 
L 3072 3794 
Q 3034 4109 2831 4275 
Q 2628 4441 2284 4441 
Q 1678 4441 1381 3981 
Q 1084 3522 1075 2569 
z
" transform="scale(0.015625)"/>
       </defs>
       <use xlink:href="#DejaVuSerif-31"/>
       <use xlink:href="#DejaVuSerif-2e" x="63.623047"/>
       <use xlink:href="#DejaVuSerif-36" x="95.410156"/>
      </g>
     </g>
    </g>
    <g id="xtick_5">
     <g id="line2d_5">
      <g>
       <use xlink:href="#m714b6c179b" x="317.520877" y="292.989187" style="stroke: #000000; stroke-width: 0.8"/>
      </g>
     </g>
     <g id="text_5">
      <!-- 1.8 -->
      <g transform="translate(306.38869 310.627) scale(0.14 -0.14)">
       <defs>
        <path id="DejaVuSerif-38" d="M 2981 1275 
Q 2981 1775 2732 2051 
Q 2484 2328 2034 2328 
Q 1584 2328 1336 2051 
Q 1088 1775 1088 1275 
Q 1088 772 1336 495 
Q 1584 219 2034 219 
Q 2484 219 2732 495 
Q 2981 772 2981 1275 
z
M 2853 3541 
Q 2853 3966 2637 4203 
Q 2422 4441 2034 4441 
Q 1650 4441 1433 4203 
Q 1216 3966 1216 3541 
Q 1216 3113 1433 2875 
Q 1650 2638 2034 2638 
Q 2422 2638 2637 2875 
Q 2853 3113 2853 3541 
z
M 2516 2484 
Q 3047 2413 3344 2092 
Q 3641 1772 3641 1275 
Q 3641 619 3225 264 
Q 2809 -91 2034 -91 
Q 1263 -91 845 264 
Q 428 619 428 1275 
Q 428 1772 725 2092 
Q 1022 2413 1556 2484 
Q 1084 2569 832 2842 
Q 581 3116 581 3541 
Q 581 4103 968 4426 
Q 1356 4750 2034 4750 
Q 2713 4750 3100 4426 
Q 3488 4103 3488 3541 
Q 3488 3116 3236 2842 
Q 2984 2569 2516 2484 
z
" transform="scale(0.015625)"/>
       </defs>
       <use xlink:href="#DejaVuSerif-31"/>
       <use xlink:href="#DejaVuSerif-2e" x="63.623047"/>
       <use xlink:href="#DejaVuSerif-38" x="95.410156"/>
      </g>
     </g>
    </g>
    <g id="xtick_6">
     <g id="line2d_6">
      <g>
       <use xlink:href="#m714b6c179b" x="382.19479" y="292.989187" style="stroke: #000000; stroke-width: 0.8"/>
      </g>
     </g>
     <g id="text_6">
      <!-- 2.0 -->
      <g transform="translate(371.062602 310.627) scale(0.14 -0.14)">
       <use xlink:href="#DejaVuSerif-32"/>
       <use xlink:href="#DejaVuSerif-2e" x="63.623047"/>
       <use xlink:href="#DejaVuSerif-30" x="95.410156"/>
      </g>
     </g>
    </g>
    <g id="text_7">
     <!-- Expended executor seconds [normalized] -->
     <g transform="translate(53.62375 329.696062) scale(0.16 -0.16)">
      <defs>
       <path id="DejaVuSerif-45" d="M 353 0 
L 353 331 
L 947 331 
L 947 4331 
L 353 4331 
L 353 4666 
L 4109 4666 
L 4109 3628 
L 3725 3628 
L 3725 4281 
L 1581 4281 
L 1581 2719 
L 3109 2719 
L 3109 3303 
L 3494 3303 
L 3494 1753 
L 3109 1753 
L 3109 2338 
L 1581 2338 
L 1581 384 
L 3775 384 
L 3775 1038 
L 4159 1038 
L 4159 0 
L 353 0 
z
" transform="scale(0.015625)"/>
       <path id="DejaVuSerif-78" d="M 1863 2028 
L 2559 2988 
L 2113 2988 
L 2113 3322 
L 3391 3322 
L 3391 2988 
L 2950 2988 
L 2059 1759 
L 3097 331 
L 3531 331 
L 3531 0 
L 1997 0 
L 1997 331 
L 2419 331 
L 1697 1325 
L 972 331 
L 1403 331 
L 1403 0 
L 141 0 
L 141 331 
L 581 331 
L 1497 1594 
L 488 2988 
L 78 2988 
L 78 3322 
L 1563 3322 
L 1563 2988 
L 1166 2988 
L 1863 2028 
z
" transform="scale(0.015625)"/>
       <path id="DejaVuSerif-70" d="M 1313 1825 
L 1313 1497 
Q 1313 897 1542 583 
Q 1772 269 2209 269 
Q 2650 269 2876 622 
Q 3103 975 3103 1663 
Q 3103 2353 2876 2703 
Q 2650 3053 2209 3053 
Q 1772 3053 1542 2737 
Q 1313 2422 1313 1825 
z
M 738 2988 
L 184 2988 
L 184 3322 
L 1313 3322 
L 1313 2803 
Q 1481 3116 1742 3264 
Q 2003 3413 2388 3413 
Q 3000 3413 3387 2928 
Q 3775 2444 3775 1663 
Q 3775 881 3387 395 
Q 3000 -91 2388 -91 
Q 2003 -91 1742 57 
Q 1481 206 1313 519 
L 1313 -997 
L 1856 -997 
L 1856 -1331 
L 184 -1331 
L 184 -997 
L 738 -997 
L 738 2988 
z
" transform="scale(0.015625)"/>
       <path id="DejaVuSerif-65" d="M 3469 1600 
L 991 1600 
L 991 1575 
Q 991 903 1244 561 
Q 1497 219 1991 219 
Q 2369 219 2611 417 
Q 2853 616 2950 1006 
L 3413 1006 
Q 3275 459 2904 184 
Q 2534 -91 1931 -91 
Q 1203 -91 761 389 
Q 319 869 319 1663 
Q 319 2450 753 2931 
Q 1188 3413 1894 3413 
Q 2647 3413 3050 2948 
Q 3453 2484 3469 1600 
z
M 2791 1931 
Q 2772 2513 2545 2808 
Q 2319 3103 1894 3103 
Q 1497 3103 1269 2806 
Q 1041 2509 991 1931 
L 2791 1931 
z
" transform="scale(0.015625)"/>
       <path id="DejaVuSerif-6e" d="M 263 0 
L 263 331 
L 781 331 
L 781 2988 
L 231 2988 
L 231 3322 
L 1356 3322 
L 1356 2731 
Q 1516 3069 1770 3241 
Q 2025 3413 2363 3413 
Q 2913 3413 3172 3097 
Q 3431 2781 3431 2113 
L 3431 331 
L 3944 331 
L 3944 0 
L 2356 0 
L 2356 331 
L 2853 331 
L 2853 1931 
Q 2853 2541 2703 2767 
Q 2553 2994 2175 2994 
Q 1775 2994 1565 2701 
Q 1356 2409 1356 1850 
L 1356 331 
L 1856 331 
L 1856 0 
L 263 0 
z
" transform="scale(0.015625)"/>
       <path id="DejaVuSerif-64" d="M 3359 331 
L 3909 331 
L 3909 0 
L 2784 0 
L 2784 519 
Q 2616 206 2355 57 
Q 2094 -91 1709 -91 
Q 1097 -91 708 395 
Q 319 881 319 1663 
Q 319 2444 706 2928 
Q 1094 3413 1709 3413 
Q 2094 3413 2355 3264 
Q 2616 3116 2784 2803 
L 2784 4531 
L 2241 4531 
L 2241 4863 
L 3359 4863 
L 3359 331 
z
M 2784 1497 
L 2784 1825 
Q 2784 2422 2554 2737 
Q 2325 3053 1888 3053 
Q 1444 3053 1217 2703 
Q 991 2353 991 1663 
Q 991 975 1217 622 
Q 1444 269 1888 269 
Q 2325 269 2554 583 
Q 2784 897 2784 1497 
z
" transform="scale(0.015625)"/>
       <path id="DejaVuSerif-20" transform="scale(0.015625)"/>
       <path id="DejaVuSerif-63" d="M 3291 997 
Q 3169 466 2822 187 
Q 2475 -91 1925 -91 
Q 1200 -91 759 389 
Q 319 869 319 1663 
Q 319 2459 759 2936 
Q 1200 3413 1925 3413 
Q 2241 3413 2553 3339 
Q 2866 3266 3181 3116 
L 3181 2266 
L 2847 2266 
Q 2781 2703 2561 2903 
Q 2341 3103 1931 3103 
Q 1466 3103 1228 2742 
Q 991 2381 991 1663 
Q 991 944 1227 581 
Q 1463 219 1931 219 
Q 2303 219 2525 412 
Q 2747 606 2828 997 
L 3291 997 
z
" transform="scale(0.015625)"/>
       <path id="DejaVuSerif-75" d="M 2266 3322 
L 3341 3322 
L 3341 331 
L 3884 331 
L 3884 0 
L 2766 0 
L 2766 588 
Q 2606 256 2353 82 
Q 2100 -91 1766 -91 
Q 1213 -91 952 223 
Q 691 538 691 1209 
L 691 2988 
L 172 2988 
L 172 3322 
L 1269 3322 
L 1269 1388 
Q 1269 781 1417 556 
Q 1566 331 1947 331 
Q 2347 331 2556 625 
Q 2766 919 2766 1478 
L 2766 2988 
L 2266 2988 
L 2266 3322 
z
" transform="scale(0.015625)"/>
       <path id="DejaVuSerif-74" d="M 691 2988 
L 184 2988 
L 184 3322 
L 691 3322 
L 691 4353 
L 1269 4353 
L 1269 3322 
L 2350 3322 
L 2350 2988 
L 1269 2988 
L 1269 878 
Q 1269 456 1350 337 
Q 1431 219 1650 219 
Q 1875 219 1978 351 
Q 2081 484 2088 781 
L 2522 781 
Q 2497 328 2275 118 
Q 2053 -91 1600 -91 
Q 1103 -91 897 129 
Q 691 350 691 878 
L 691 2988 
z
" transform="scale(0.015625)"/>
       <path id="DejaVuSerif-6f" d="M 1925 219 
Q 2388 219 2623 584 
Q 2859 950 2859 1663 
Q 2859 2375 2623 2739 
Q 2388 3103 1925 3103 
Q 1463 3103 1227 2739 
Q 991 2375 991 1663 
Q 991 950 1228 584 
Q 1466 219 1925 219 
z
M 1925 -91 
Q 1200 -91 759 389 
Q 319 869 319 1663 
Q 319 2456 758 2934 
Q 1197 3413 1925 3413 
Q 2653 3413 3092 2934 
Q 3531 2456 3531 1663 
Q 3531 869 3092 389 
Q 2653 -91 1925 -91 
z
" transform="scale(0.015625)"/>
       <path id="DejaVuSerif-72" d="M 3059 3328 
L 3059 2497 
L 2728 2497 
Q 2713 2744 2591 2866 
Q 2469 2988 2234 2988 
Q 1809 2988 1582 2694 
Q 1356 2400 1356 1850 
L 1356 331 
L 2022 331 
L 2022 0 
L 263 0 
L 263 331 
L 781 331 
L 781 2994 
L 231 2994 
L 231 3322 
L 1356 3322 
L 1356 2731 
Q 1525 3078 1790 3245 
Q 2056 3413 2438 3413 
Q 2578 3413 2733 3391 
Q 2888 3369 3059 3328 
z
" transform="scale(0.015625)"/>
       <path id="DejaVuSerif-73" d="M 359 184 
L 359 959 
L 691 959 
Q 703 588 923 403 
Q 1144 219 1575 219 
Q 1963 219 2166 364 
Q 2369 509 2369 788 
Q 2369 1006 2220 1140 
Q 2072 1275 1594 1428 
L 1178 1569 
Q 750 1706 558 1912 
Q 366 2119 366 2438 
Q 366 2894 700 3153 
Q 1034 3413 1625 3413 
Q 1888 3413 2178 3344 
Q 2469 3275 2778 3144 
L 2778 2419 
L 2447 2419 
Q 2434 2741 2221 2922 
Q 2009 3103 1644 3103 
Q 1281 3103 1095 2975 
Q 909 2847 909 2591 
Q 909 2381 1050 2254 
Q 1191 2128 1613 1997 
L 2069 1856 
Q 2541 1709 2748 1489 
Q 2956 1269 2956 922 
Q 2956 450 2595 179 
Q 2234 -91 1600 -91 
Q 1278 -91 972 -22 
Q 666 47 359 184 
z
" transform="scale(0.015625)"/>
       <path id="DejaVuSerif-5b" d="M 550 4863 
L 2003 4863 
L 2003 4531 
L 1147 4531 
L 1147 -513 
L 2003 -513 
L 2003 -844 
L 550 -844 
L 550 4863 
z
" transform="scale(0.015625)"/>
       <path id="DejaVuSerif-6d" d="M 3316 2675 
Q 3481 3041 3739 3227 
Q 3997 3413 4341 3413 
Q 4863 3413 5119 3089 
Q 5375 2766 5375 2113 
L 5375 331 
L 5894 331 
L 5894 0 
L 4300 0 
L 4300 331 
L 4800 331 
L 4800 2047 
Q 4800 2556 4650 2772 
Q 4500 2988 4153 2988 
Q 3769 2988 3567 2697 
Q 3366 2406 3366 1850 
L 3366 331 
L 3866 331 
L 3866 0 
L 2291 0 
L 2291 331 
L 2791 331 
L 2791 2069 
Q 2791 2566 2641 2777 
Q 2491 2988 2144 2988 
Q 1759 2988 1557 2697 
Q 1356 2406 1356 1850 
L 1356 331 
L 1856 331 
L 1856 0 
L 263 0 
L 263 331 
L 781 331 
L 781 2994 
L 231 2994 
L 231 3322 
L 1356 3322 
L 1356 2731 
Q 1516 3063 1762 3238 
Q 2009 3413 2322 3413 
Q 2709 3413 2968 3220 
Q 3228 3028 3316 2675 
z
" transform="scale(0.015625)"/>
       <path id="DejaVuSerif-61" d="M 2547 1044 
L 2547 1747 
L 1806 1747 
Q 1378 1747 1168 1562 
Q 959 1378 959 997 
Q 959 650 1171 447 
Q 1384 244 1747 244 
Q 2106 244 2326 466 
Q 2547 688 2547 1044 
z
M 3122 2075 
L 3122 331 
L 3634 331 
L 3634 0 
L 2547 0 
L 2547 359 
Q 2356 128 2106 18 
Q 1856 -91 1522 -91 
Q 969 -91 644 203 
Q 319 497 319 997 
Q 319 1513 691 1797 
Q 1063 2081 1741 2081 
L 2547 2081 
L 2547 2309 
Q 2547 2688 2317 2895 
Q 2088 3103 1672 3103 
Q 1328 3103 1125 2947 
Q 922 2791 872 2484 
L 575 2484 
L 575 3156 
Q 875 3284 1158 3348 
Q 1441 3413 1709 3413 
Q 2400 3413 2761 3070 
Q 3122 2728 3122 2075 
z
" transform="scale(0.015625)"/>
       <path id="DejaVuSerif-6c" d="M 1313 331 
L 1856 331 
L 1856 0 
L 184 0 
L 184 331 
L 738 331 
L 738 4531 
L 184 4531 
L 184 4863 
L 1313 4863 
L 1313 331 
z
" transform="scale(0.015625)"/>
       <path id="DejaVuSerif-69" d="M 622 4353 
Q 622 4497 726 4603 
Q 831 4709 978 4709 
Q 1122 4709 1226 4603 
Q 1331 4497 1331 4353 
Q 1331 4206 1228 4103 
Q 1125 4000 978 4000 
Q 831 4000 726 4103 
Q 622 4206 622 4353 
z
M 1356 331 
L 1900 331 
L 1900 0 
L 231 0 
L 231 331 
L 781 331 
L 781 2988 
L 231 2988 
L 231 3322 
L 1356 3322 
L 1356 331 
z
" transform="scale(0.015625)"/>
       <path id="DejaVuSerif-7a" d="M 256 0 
L 256 269 
L 2338 2988 
L 691 2988 
L 691 2413 
L 359 2413 
L 359 3322 
L 3078 3322 
L 3078 3053 
L 997 331 
L 2803 331 
L 2803 934 
L 3138 934 
L 3138 0 
L 256 0 
z
" transform="scale(0.015625)"/>
       <path id="DejaVuSerif-5d" d="M 1947 4863 
L 1947 -844 
L 494 -844 
L 494 -513 
L 1350 -513 
L 1350 4531 
L 494 4531 
L 494 4863 
L 1947 4863 
z
" transform="scale(0.015625)"/>
      </defs>
      <use xlink:href="#DejaVuSerif-45"/>
      <use xlink:href="#DejaVuSerif-78" x="72.998047"/>
      <use xlink:href="#DejaVuSerif-70" x="129.394531"/>
      <use xlink:href="#DejaVuSerif-65" x="193.408203"/>
      <use xlink:href="#DejaVuSerif-6e" x="252.587891"/>
      <use xlink:href="#DejaVuSerif-64" x="316.992188"/>
      <use xlink:href="#DejaVuSerif-65" x="381.005859"/>
      <use xlink:href="#DejaVuSerif-64" x="440.185547"/>
      <use xlink:href="#DejaVuSerif-20" x="504.199219"/>
      <use xlink:href="#DejaVuSerif-65" x="535.986328"/>
      <use xlink:href="#DejaVuSerif-78" x="595.166016"/>
      <use xlink:href="#DejaVuSerif-65" x="651.5625"/>
      <use xlink:href="#DejaVuSerif-63" x="710.742188"/>
      <use xlink:href="#DejaVuSerif-75" x="766.748047"/>
      <use xlink:href="#DejaVuSerif-74" x="831.152344"/>
      <use xlink:href="#DejaVuSerif-6f" x="871.337891"/>
      <use xlink:href="#DejaVuSerif-72" x="931.542969"/>
      <use xlink:href="#DejaVuSerif-20" x="979.345703"/>
      <use xlink:href="#DejaVuSerif-73" x="1011.132812"/>
      <use xlink:href="#DejaVuSerif-65" x="1062.451172"/>
      <use xlink:href="#DejaVuSerif-63" x="1121.630859"/>
      <use xlink:href="#DejaVuSerif-6f" x="1177.636719"/>
      <use xlink:href="#DejaVuSerif-6e" x="1237.841797"/>
      <use xlink:href="#DejaVuSerif-64" x="1302.246094"/>
      <use xlink:href="#DejaVuSerif-73" x="1366.259766"/>
      <use xlink:href="#DejaVuSerif-20" x="1417.578125"/>
      <use xlink:href="#DejaVuSerif-5b" x="1449.365234"/>
      <use xlink:href="#DejaVuSerif-6e" x="1488.378906"/>
      <use xlink:href="#DejaVuSerif-6f" x="1552.783203"/>
      <use xlink:href="#DejaVuSerif-72" x="1612.988281"/>
      <use xlink:href="#DejaVuSerif-6d" x="1660.791016"/>
      <use xlink:href="#DejaVuSerif-61" x="1755.615234"/>
      <use xlink:href="#DejaVuSerif-6c" x="1815.234375"/>
      <use xlink:href="#DejaVuSerif-69" x="1847.216797"/>
      <use xlink:href="#DejaVuSerif-7a" x="1879.199219"/>
      <use xlink:href="#DejaVuSerif-65" x="1931.884766"/>
      <use xlink:href="#DejaVuSerif-64" x="1991.064453"/>
      <use xlink:href="#DejaVuSerif-5d" x="2055.078125"/>
     </g>
    </g>
   </g>
   <g id="matplotlib.axis_2">
    <g id="ytick_1">
     <g id="line2d_7">
      <defs>
       <path id="mcb3b871874" d="M 0 0 
L -3.5 0 
" style="stroke: #000000; stroke-width: 0.8"/>
      </defs>
      <g>
       <use xlink:href="#mcb3b871874" x="42.5925" y="280.893187" style="stroke: #000000; stroke-width: 0.8"/>
      </g>
     </g>
     <g id="text_8">
      <!-- 1 -->
      <g transform="translate(26.685 286.212094) scale(0.14 -0.14)">
       <use xlink:href="#DejaVuSerif-31"/>
      </g>
     </g>
    </g>
    <g id="ytick_2">
     <g id="line2d_8">
      <g>
       <use xlink:href="#mcb3b871874" x="42.5925" y="230.352782" style="stroke: #000000; stroke-width: 0.8"/>
      </g>
     </g>
     <g id="text_9">
      <!-- 2 -->
      <g transform="translate(26.685 235.671689) scale(0.14 -0.14)">
       <use xlink:href="#DejaVuSerif-32"/>
      </g>
     </g>
    </g>
    <g id="ytick_3">
     <g id="line2d_9">
      <g>
       <use xlink:href="#mcb3b871874" x="42.5925" y="179.812377" style="stroke: #000000; stroke-width: 0.8"/>
      </g>
     </g>
     <g id="text_10">
      <!-- 3 -->
      <g transform="translate(26.685 185.131283) scale(0.14 -0.14)">
       <defs>
        <path id="DejaVuSerif-33" d="M 622 4469 
Q 988 4606 1323 4678 
Q 1659 4750 1953 4750 
Q 2638 4750 3022 4454 
Q 3406 4159 3406 3634 
Q 3406 3213 3140 2930 
Q 2875 2647 2388 2547 
Q 2963 2466 3280 2130 
Q 3597 1794 3597 1259 
Q 3597 606 3158 257 
Q 2719 -91 1894 -91 
Q 1528 -91 1179 -12 
Q 831 66 488 225 
L 488 1131 
L 838 1131 
Q 869 681 1141 450 
Q 1413 219 1906 219 
Q 2384 219 2661 495 
Q 2938 772 2938 1253 
Q 2938 1803 2653 2086 
Q 2369 2369 1819 2369 
L 1522 2369 
L 1522 2688 
L 1678 2688 
Q 2225 2688 2498 2914 
Q 2772 3141 2772 3597 
Q 2772 4006 2547 4223 
Q 2322 4441 1900 4441 
Q 1478 4441 1245 4241 
Q 1013 4041 972 3647 
L 622 3647 
L 622 4469 
z
" transform="scale(0.015625)"/>
       </defs>
       <use xlink:href="#DejaVuSerif-33"/>
      </g>
     </g>
    </g>
    <g id="ytick_4">
     <g id="line2d_10">
      <g>
       <use xlink:href="#mcb3b871874" x="42.5925" y="129.271972" style="stroke: #000000; stroke-width: 0.8"/>
      </g>
     </g>
     <g id="text_11">
      <!-- 4 -->
      <g transform="translate(26.685 134.590878) scale(0.14 -0.14)">
       <use xlink:href="#DejaVuSerif-34"/>
      </g>
     </g>
    </g>
    <g id="ytick_5">
     <g id="line2d_11">
      <g>
       <use xlink:href="#mcb3b871874" x="42.5925" y="78.731567" style="stroke: #000000; stroke-width: 0.8"/>
      </g>
     </g>
     <g id="text_12">
      <!-- 5 -->
      <g transform="translate(26.685 84.050473) scale(0.14 -0.14)">
       <defs>
        <path id="DejaVuSerif-35" d="M 3219 4666 
L 3219 4153 
L 1081 4153 
L 1081 2816 
Q 1244 2928 1461 2984 
Q 1678 3041 1947 3041 
Q 2703 3041 3140 2622 
Q 3578 2203 3578 1478 
Q 3578 738 3136 323 
Q 2694 -91 1894 -91 
Q 1572 -91 1234 -12 
Q 897 66 544 225 
L 544 1131 
L 897 1131 
Q 925 688 1179 453 
Q 1434 219 1894 219 
Q 2388 219 2653 544 
Q 2919 869 2919 1478 
Q 2919 2084 2655 2407 
Q 2391 2731 1894 2731 
Q 1613 2731 1398 2631 
Q 1184 2531 1019 2322 
L 750 2322 
L 750 4666 
L 3219 4666 
z
" transform="scale(0.015625)"/>
       </defs>
       <use xlink:href="#DejaVuSerif-35"/>
      </g>
     </g>
    </g>
    <g id="ytick_6">
     <g id="line2d_12">
      <g>
       <use xlink:href="#mcb3b871874" x="42.5925" y="28.191162" style="stroke: #000000; stroke-width: 0.8"/>
      </g>
     </g>
     <g id="text_13">
      <!-- 6 -->
      <g transform="translate(26.685 33.510068) scale(0.14 -0.14)">
       <use xlink:href="#DejaVuSerif-36"/>
      </g>
     </g>
    </g>
    <g id="text_14">
     <!-- Runtime [normalized] -->
     <g transform="translate(19.3575 248.479437) rotate(-90) scale(0.16 -0.16)">
      <defs>
       <path id="DejaVuSerif-52" d="M 3066 2316 
Q 3284 2256 3442 2114 
Q 3600 1972 3725 1716 
L 4403 331 
L 4972 331 
L 4972 0 
L 3872 0 
L 3144 1484 
Q 2934 1916 2759 2042 
Q 2584 2169 2278 2169 
L 1581 2169 
L 1581 331 
L 2241 331 
L 2241 0 
L 353 0 
L 353 331 
L 947 331 
L 947 4331 
L 353 4331 
L 353 4666 
L 2719 4666 
Q 3400 4666 3770 4341 
Q 4141 4016 4141 3419 
Q 4141 2938 3870 2661 
Q 3600 2384 3066 2316 
z
M 1581 2503 
L 2503 2503 
Q 2975 2503 3200 2726 
Q 3425 2950 3425 3419 
Q 3425 3888 3200 4109 
Q 2975 4331 2503 4331 
L 1581 4331 
L 1581 2503 
z
" transform="scale(0.015625)"/>
      </defs>
      <use xlink:href="#DejaVuSerif-52"/>
      <use xlink:href="#DejaVuSerif-75" x="75.292969"/>
      <use xlink:href="#DejaVuSerif-6e" x="139.697266"/>
      <use xlink:href="#DejaVuSerif-74" x="204.101562"/>
      <use xlink:href="#DejaVuSerif-69" x="244.287109"/>
      <use xlink:href="#DejaVuSerif-6d" x="276.269531"/>
      <use xlink:href="#DejaVuSerif-65" x="371.09375"/>
      <use xlink:href="#DejaVuSerif-20" x="430.273438"/>
      <use xlink:href="#DejaVuSerif-5b" x="462.060547"/>
      <use xlink:href="#DejaVuSerif-6e" x="501.074219"/>
      <use xlink:href="#DejaVuSerif-6f" x="565.478516"/>
      <use xlink:href="#DejaVuSerif-72" x="625.683594"/>
      <use xlink:href="#DejaVuSerif-6d" x="673.486328"/>
      <use xlink:href="#DejaVuSerif-61" x="768.310547"/>
      <use xlink:href="#DejaVuSerif-6c" x="827.929688"/>
      <use xlink:href="#DejaVuSerif-69" x="859.912109"/>
      <use xlink:href="#DejaVuSerif-7a" x="891.894531"/>
      <use xlink:href="#DejaVuSerif-65" x="944.580078"/>
      <use xlink:href="#DejaVuSerif-64" x="1003.759766"/>
      <use xlink:href="#DejaVuSerif-5d" x="1067.773438"/>
     </g>
    </g>
   </g>
   <g id="PathCollection_2">
    <defs>
     <path id="mfcaa551dfe" d="M 0 3.535534 
C 0.937635 3.535534 1.836992 3.163008 2.5 2.5 
C 3.163008 1.836992 3.535534 0.937635 3.535534 0 
C 3.535534 -0.937635 3.163008 -1.836992 2.5 -2.5 
C 1.836992 -3.163008 0.937635 -3.535534 0 -3.535534 
C -0.937635 -3.535534 -1.836992 -3.163008 -2.5 -2.5 
C -3.163008 -1.836992 -3.535534 -0.937635 -3.535534 0 
C -3.535534 0.937635 -3.163008 1.836992 -2.5 2.5 
C -1.836992 3.163008 -0.937635 3.535534 0 3.535534 
z
" style="stroke: #fa8072"/>
    </defs>
    <g clip-path="url(#pa70b25dd3e)">
     <use xlink:href="#mfcaa551dfe" x="65.787694" y="248.294416" style="fill: #fa8072; stroke: #fa8072"/>
     <use xlink:href="#mfcaa551dfe" x="63.185891" y="256.075517" style="fill: #fa8072; stroke: #fa8072"/>
     <use xlink:href="#mfcaa551dfe" x="60.939605" y="256.853403" style="fill: #fa8072; stroke: #fa8072"/>
     <use xlink:href="#mfcaa551dfe" x="80.816222" y="265.149427" style="fill: #fa8072; stroke: #fa8072"/>
     <use xlink:href="#mfcaa551dfe" x="82.105721" y="278.834318" style="fill: #fa8072; stroke: #fa8072"/>
     <use xlink:href="#mfcaa551dfe" x="82.499816" y="277.338855" style="fill: #fa8072; stroke: #fa8072"/>
     <use xlink:href="#mfcaa551dfe" x="64.954504" y="246.655634" style="fill: #fa8072; stroke: #fa8072"/>
     <use xlink:href="#mfcaa551dfe" x="58.825227" y="280.893187" style="fill: #fa8072; stroke: #fa8072"/>
     <use xlink:href="#mfcaa551dfe" x="58.825227" y="268.869435" style="fill: #fa8072; stroke: #fa8072"/>
     <use xlink:href="#mfcaa551dfe" x="58.825227" y="280.893187" style="fill: #fa8072; stroke: #fa8072"/>
     <use xlink:href="#mfcaa551dfe" x="106.214819" y="247.100853" style="fill: #fa8072; stroke: #fa8072"/>
     <use xlink:href="#mfcaa551dfe" x="58.825227" y="276.103653" style="fill: #fa8072; stroke: #fa8072"/>
     <use xlink:href="#mfcaa551dfe" x="58.825227" y="272.144395" style="fill: #fa8072; stroke: #fa8072"/>
     <use xlink:href="#mfcaa551dfe" x="77.218383" y="280.893187" style="fill: #fa8072; stroke: #fa8072"/>
     <use xlink:href="#mfcaa551dfe" x="58.825227" y="280.893187" style="fill: #fa8072; stroke: #fa8072"/>
     <use xlink:href="#mfcaa551dfe" x="58.825227" y="280.893187" style="fill: #fa8072; stroke: #fa8072"/>
     <use xlink:href="#mfcaa551dfe" x="67.152632" y="270.154636" style="fill: #fa8072; stroke: #fa8072"/>
     <use xlink:href="#mfcaa551dfe" x="74.966596" y="280.893187" style="fill: #fa8072; stroke: #fa8072"/>
    </g>
   </g>
   <g id="patch_3">
    <path d="M 42.5925 292.989187 
L 42.5925 26.877187 
" style="fill: none; stroke: #000000; stroke-width: 0.8; stroke-linejoin: miter; stroke-linecap: square"/>
   </g>
   <g id="patch_4">
    <path d="M 399.7125 292.989187 
L 399.7125 26.877187 
" style="fill: none; stroke: #000000; stroke-width: 0.8; stroke-linejoin: miter; stroke-linecap: square"/>
   </g>
   <g id="patch_5">
    <path d="M 42.5925 292.989187 
L 399.7125 292.989187 
" style="fill: none; stroke: #000000; stroke-width: 0.8; stroke-linejoin: miter; stroke-linecap: square"/>
   </g>
   <g id="patch_6">
    <path d="M 42.5925 26.877187 
L 399.7125 26.877187 
" style="fill: none; stroke: #000000; stroke-width: 0.8; stroke-linejoin: miter; stroke-linecap: square"/>
   </g>
   <g id="PathCollection_3">
    <defs>
     <path id="m6882c6225d" d="M -3.354102 3.354102 
L 3.354102 -3.354102 
M -3.354102 -3.354102 
L 3.354102 3.354102 
" style="stroke: #000000; stroke-width: 1.5"/>
    </defs>
    <g clip-path="url(#pa70b25dd3e)">
     <use xlink:href="#m6882c6225d" x="87.102984" y="280.893187" style="stroke: #000000; stroke-width: 1.5"/>
     <use xlink:href="#m6882c6225d" x="77.214456" y="280.893187" style="stroke: #000000; stroke-width: 1.5"/>
     <use xlink:href="#m6882c6225d" x="72.074568" y="280.893187" style="stroke: #000000; stroke-width: 1.5"/>
     <use xlink:href="#m6882c6225d" x="89.68265" y="280.893187" style="stroke: #000000; stroke-width: 1.5"/>
     <use xlink:href="#m6882c6225d" x="117.228558" y="280.893187" style="stroke: #000000; stroke-width: 1.5"/>
     <use xlink:href="#m6882c6225d" x="124.520182" y="280.893187" style="stroke: #000000; stroke-width: 1.5"/>
     <use xlink:href="#m6882c6225d" x="58.825227" y="280.893187" style="stroke: #000000; stroke-width: 1.5"/>
     <use xlink:href="#m6882c6225d" x="138.810576" y="274.810183" style="stroke: #000000; stroke-width: 1.5"/>
     <use xlink:href="#m6882c6225d" x="70.556472" y="280.893187" style="stroke: #000000; stroke-width: 1.5"/>
     <use xlink:href="#m6882c6225d" x="99.459344" y="275.700907" style="stroke: #000000; stroke-width: 1.5"/>
     <use xlink:href="#m6882c6225d" x="58.825227" y="280.893187" style="stroke: #000000; stroke-width: 1.5"/>
     <use xlink:href="#m6882c6225d" x="66.246366" y="280.893187" style="stroke: #000000; stroke-width: 1.5"/>
     <use xlink:href="#m6882c6225d" x="97.345906" y="280.893187" style="stroke: #000000; stroke-width: 1.5"/>
     <use xlink:href="#m6882c6225d" x="112.944065" y="277.791761" style="stroke: #000000; stroke-width: 1.5"/>
     <use xlink:href="#m6882c6225d" x="275.863956" y="201.317188" style="stroke: #000000; stroke-width: 1.5"/>
     <use xlink:href="#m6882c6225d" x="92.666714" y="247.254179" style="stroke: #000000; stroke-width: 1.5"/>
     <use xlink:href="#m6882c6225d" x="91.452363" y="280.893187" style="stroke: #000000; stroke-width: 1.5"/>
     <use xlink:href="#m6882c6225d" x="111.519258" y="261.126234" style="stroke: #000000; stroke-width: 1.5"/>
    </g>
   </g>
   <g id="text_15">
    <!-- Execution Cost/Performance Relations -->
    <g transform="translate(45.27 20.877187) scale(0.18 -0.18)">
     <defs>
      <path id="DejaVuSerif-43" d="M 4513 1234 
Q 4306 581 3820 245 
Q 3334 -91 2591 -91 
Q 2134 -91 1743 65 
Q 1353 222 1050 525 
Q 700 875 529 1320 
Q 359 1766 359 2328 
Q 359 3416 987 4083 
Q 1616 4750 2644 4750 
Q 3025 4750 3456 4650 
Q 3888 4550 4384 4347 
L 4384 3272 
L 4031 3272 
Q 3916 3859 3567 4137 
Q 3219 4416 2591 4416 
Q 1844 4416 1459 3886 
Q 1075 3356 1075 2328 
Q 1075 1303 1459 773 
Q 1844 244 2591 244 
Q 3113 244 3450 492 
Q 3788 741 3938 1234 
L 4513 1234 
z
" transform="scale(0.015625)"/>
      <path id="DejaVuSerif-2f" d="M 1656 4666 
L 2156 4666 
L 500 -594 
L 0 -594 
L 1656 4666 
z
" transform="scale(0.015625)"/>
      <path id="DejaVuSerif-50" d="M 1581 2375 
L 2406 2375 
Q 2872 2375 3115 2626 
Q 3359 2878 3359 3353 
Q 3359 3831 3115 4081 
Q 2872 4331 2406 4331 
L 1581 4331 
L 1581 2375 
z
M 353 0 
L 353 331 
L 947 331 
L 947 4331 
L 353 4331 
L 353 4666 
L 2559 4666 
Q 3259 4666 3668 4311 
Q 4078 3956 4078 3353 
Q 4078 2753 3668 2397 
Q 3259 2041 2559 2041 
L 1581 2041 
L 1581 331 
L 2303 331 
L 2303 0 
L 353 0 
z
" transform="scale(0.015625)"/>
      <path id="DejaVuSerif-66" d="M 2753 4078 
L 2450 4078 
Q 2447 4313 2317 4434 
Q 2188 4556 1941 4556 
Q 1619 4556 1487 4379 
Q 1356 4203 1356 3750 
L 1356 3322 
L 2284 3322 
L 2284 2988 
L 1356 2988 
L 1356 331 
L 2094 331 
L 2094 0 
L 231 0 
L 231 331 
L 781 331 
L 781 2988 
L 231 2988 
L 231 3322 
L 781 3322 
L 781 3738 
Q 781 4294 1070 4578 
Q 1359 4863 1919 4863 
Q 2128 4863 2337 4825 
Q 2547 4788 2753 4709 
L 2753 4078 
z
" transform="scale(0.015625)"/>
     </defs>
     <use xlink:href="#DejaVuSerif-45"/>
     <use xlink:href="#DejaVuSerif-78" x="72.998047"/>
     <use xlink:href="#DejaVuSerif-65" x="129.394531"/>
     <use xlink:href="#DejaVuSerif-63" x="188.574219"/>
     <use xlink:href="#DejaVuSerif-75" x="244.580078"/>
     <use xlink:href="#DejaVuSerif-74" x="308.984375"/>
     <use xlink:href="#DejaVuSerif-69" x="349.169922"/>
     <use xlink:href="#DejaVuSerif-6f" x="381.152344"/>
     <use xlink:href="#DejaVuSerif-6e" x="441.357422"/>
     <use xlink:href="#DejaVuSerif-20" x="505.761719"/>
     <use xlink:href="#DejaVuSerif-43" x="537.548828"/>
     <use xlink:href="#DejaVuSerif-6f" x="614.0625"/>
     <use xlink:href="#DejaVuSerif-73" x="674.267578"/>
     <use xlink:href="#DejaVuSerif-74" x="725.585938"/>
     <use xlink:href="#DejaVuSerif-2f" x="765.771484"/>
     <use xlink:href="#DejaVuSerif-50" x="799.462891"/>
     <use xlink:href="#DejaVuSerif-65" x="862.248047"/>
     <use xlink:href="#DejaVuSerif-72" x="921.427734"/>
     <use xlink:href="#DejaVuSerif-66" x="969.230469"/>
     <use xlink:href="#DejaVuSerif-6f" x="1006.242188"/>
     <use xlink:href="#DejaVuSerif-72" x="1066.447266"/>
     <use xlink:href="#DejaVuSerif-6d" x="1114.25"/>
     <use xlink:href="#DejaVuSerif-61" x="1209.074219"/>
     <use xlink:href="#DejaVuSerif-6e" x="1268.693359"/>
     <use xlink:href="#DejaVuSerif-63" x="1333.097656"/>
     <use xlink:href="#DejaVuSerif-65" x="1389.103516"/>
     <use xlink:href="#DejaVuSerif-20" x="1448.283203"/>
     <use xlink:href="#DejaVuSerif-52" x="1480.070312"/>
     <use xlink:href="#DejaVuSerif-65" x="1555.363281"/>
     <use xlink:href="#DejaVuSerif-6c" x="1614.542969"/>
     <use xlink:href="#DejaVuSerif-61" x="1646.525391"/>
     <use xlink:href="#DejaVuSerif-74" x="1706.144531"/>
     <use xlink:href="#DejaVuSerif-69" x="1746.330078"/>
     <use xlink:href="#DejaVuSerif-6f" x="1778.3125"/>
     <use xlink:href="#DejaVuSerif-6e" x="1838.517578"/>
     <use xlink:href="#DejaVuSerif-73" x="1902.921875"/>
    </g>
   </g>
   <g id="legend_1">
    <g id="patch_7">
     <path d="M 52.3925 99.725312 
L 115.69 99.725312 
Q 118.49 99.725312 118.49 96.925312 
L 118.49 36.677187 
Q 118.49 33.877187 115.69 33.877187 
L 52.3925 33.877187 
Q 49.5925 33.877187 49.5925 36.677187 
L 49.5925 96.925312 
Q 49.5925 99.725312 52.3925 99.725312 
z
" style="fill: #ffffff; opacity: 0.8; stroke: #cccccc; stroke-linejoin: miter"/>
    </g>
    <g id="PathCollection_4">
     <g>
      <use xlink:href="#m6882c6225d" x="69.1925" y="46.44" style="stroke: #000000; stroke-width: 1.5"/>
     </g>
    </g>
    <g id="text_16">
     <!-- S1 -->
     <g transform="translate(94.3925 50.115) scale(0.14 -0.14)">
      <defs>
       <path id="DejaVuSerif-53" d="M 594 225 
L 594 1288 
L 953 1284 
Q 969 753 1261 498 
Q 1553 244 2150 244 
Q 2706 244 2998 464 
Q 3291 684 3291 1106 
Q 3291 1444 3114 1625 
Q 2938 1806 2369 1978 
L 1753 2163 
Q 1084 2366 811 2669 
Q 538 2972 538 3500 
Q 538 4094 959 4422 
Q 1381 4750 2144 4750 
Q 2469 4750 2856 4679 
Q 3244 4609 3681 4475 
L 3681 3481 
L 3328 3481 
Q 3275 3975 2998 4195 
Q 2722 4416 2156 4416 
Q 1663 4416 1405 4214 
Q 1147 4013 1147 3628 
Q 1147 3294 1340 3103 
Q 1534 2913 2163 2725 
L 2741 2553 
Q 3375 2363 3645 2067 
Q 3916 1772 3916 1275 
Q 3916 597 3481 253 
Q 3047 -91 2188 -91 
Q 1803 -91 1404 -12 
Q 1006 66 594 225 
z
" transform="scale(0.015625)"/>
      </defs>
      <use xlink:href="#DejaVuSerif-53"/>
      <use xlink:href="#DejaVuSerif-31" x="68.505859"/>
     </g>
    </g>
    <g id="PathCollection_5">
     <g>
      <use xlink:href="#m8608cea101" x="69.1925" y="66.989375" style="fill: #e377c2; stroke: #e377c2"/>
     </g>
    </g>
    <g id="text_17">
     <!-- S2 -->
     <g transform="translate(94.3925 70.664375) scale(0.14 -0.14)">
      <use xlink:href="#DejaVuSerif-53"/>
      <use xlink:href="#DejaVuSerif-32" x="68.505859"/>
     </g>
    </g>
    <g id="PathCollection_6">
     <g>
      <use xlink:href="#mfcaa551dfe" x="69.1925" y="87.53875" style="fill: #fa8072; stroke: #fa8072"/>
     </g>
    </g>
    <g id="text_18">
     <!-- S3 -->
     <g transform="translate(94.3925 91.21375) scale(0.14 -0.14)">
      <use xlink:href="#DejaVuSerif-53"/>
      <use xlink:href="#DejaVuSerif-33" x="68.505859"/>
     </g>
    </g>
   </g>
  </g>
 </g>
 <defs>
  <clipPath id="pa70b25dd3e">
   <rect x="42.5925" y="26.877187" width="357.12" height="266.112"/>
  </clipPath>
 </defs>
</svg>
